<svg width="56" height="36" viewBox="0 0 56 36" fill="none" xmlns="http://www.w3.org/2000/svg">
<path d="M0.16 18C0.16 12.496 1.216 8.16 3.328 4.992C5.472 1.824 8.912 0.239997 13.648 0.239997C18.384 0.239997 21.808 1.824 23.92 4.992C26.064 8.16 27.136 12.496 27.136 18C27.136 23.568 26.064 27.936 23.92 31.104C21.808 34.272 18.384 35.856 13.648 35.856C8.912 35.856 5.472 34.272 3.328 31.104C1.216 27.936 0.16 23.568 0.16 18ZM19.072 18C19.072 14.768 18.72 12.288 18.016 10.56C17.312 8.8 15.856 7.92 13.648 7.92C11.44 7.92 9.984 8.8 9.28 10.56C8.576 12.288 8.224 14.768 8.224 18C8.224 20.176 8.352 21.984 8.608 23.424C8.864 24.832 9.376 25.984 10.144 26.88C10.944 27.744 12.112 28.176 13.648 28.176C15.184 28.176 16.336 27.744 17.104 26.88C17.904 25.984 18.432 24.832 18.688 23.424C18.944 21.984 19.072 20.176 19.072 18ZM31.1845 29.424C32.2725 28.56 32.7685 28.16 32.6725 28.224C35.8085 25.632 38.2725 23.504 40.0645 21.84C41.8885 20.176 43.4245 18.432 44.6725 16.608C45.9205 14.784 46.5445 13.008 46.5445 11.28C46.5445 9.968 46.2405 8.944 45.6325 8.208C45.0245 7.472 44.1125 7.104 42.8965 7.104C41.6805 7.104 40.7205 7.568 40.0165 8.496C39.3445 9.392 39.0085 10.672 39.0085 12.336H31.0885C31.1525 9.616 31.7285 7.344 32.8165 5.52C33.9365 3.696 35.3925 2.352 37.1845 1.488C39.0085 0.623998 41.0245 0.191998 43.2325 0.191998C47.0405 0.191998 49.9045 1.168 51.8245 3.12C53.7765 5.072 54.7525 7.616 54.7525 10.752C54.7525 14.176 53.5845 17.36 51.2485 20.304C48.9125 23.216 45.9365 26.064 42.3205 28.848H55.2805V35.52H31.1845V29.424Z" fill="url(#paint0_linear_500_3254)" fill-opacity="0.7"/>
<defs>
<linearGradient id="paint0_linear_500_3254" x1="-2" y1="-17" x2="44.6502" y2="62.268" gradientUnits="userSpaceOnUse">
<stop stop-color="#0E0F19" stop-opacity="0.7"/>
<stop offset="1" stop-color="#0E0F19" stop-opacity="0"/>
</linearGradient>
</defs>
</svg>
