<svg width="56" height="37" viewBox="0 0 56 37" fill="none" xmlns="http://www.w3.org/2000/svg">
<path d="M0.16 18C0.16 12.496 1.216 8.16 3.328 4.992C5.472 1.824 8.912 0.239997 13.648 0.239997C18.384 0.239997 21.808 1.824 23.92 4.992C26.064 8.16 27.136 12.496 27.136 18C27.136 23.568 26.064 27.936 23.92 31.104C21.808 34.272 18.384 35.856 13.648 35.856C8.912 35.856 5.472 34.272 3.328 31.104C1.216 27.936 0.16 23.568 0.16 18ZM19.072 18C19.072 14.768 18.72 12.288 18.016 10.56C17.312 8.8 15.856 7.92 13.648 7.92C11.44 7.92 9.984 8.8 9.28 10.56C8.576 12.288 8.224 14.768 8.224 18C8.224 20.176 8.352 21.984 8.608 23.424C8.864 24.832 9.376 25.984 10.144 26.88C10.944 27.744 12.112 28.176 13.648 28.176C15.184 28.176 16.336 27.744 17.104 26.88C17.904 25.984 18.432 24.832 18.688 23.424C18.944 21.984 19.072 20.176 19.072 18ZM31.7605 10.848C31.8885 7.424 33.0085 4.784 35.1205 2.928C37.2325 1.072 40.0965 0.143998 43.7125 0.143998C46.1125 0.143998 48.1605 0.559999 49.8565 1.392C51.5845 2.224 52.8805 3.36 53.7445 4.8C54.6405 6.24 55.0885 7.856 55.0885 9.648C55.0885 11.76 54.5605 13.488 53.5045 14.832C52.4485 16.144 51.2165 17.04 49.8085 17.52V17.712C51.6325 18.32 53.0725 19.328 54.1285 20.736C55.1845 22.144 55.7125 23.952 55.7125 26.16C55.7125 28.144 55.2485 29.904 54.3205 31.44C53.4245 32.944 52.0965 34.128 50.3365 34.992C48.6085 35.856 46.5445 36.288 44.1445 36.288C40.3045 36.288 37.2325 35.344 34.9285 33.456C32.6565 31.568 31.4565 28.72 31.3285 24.912H39.2965C39.3285 26.32 39.7285 27.44 40.4965 28.272C41.2645 29.072 42.3845 29.472 43.8565 29.472C45.1045 29.472 46.0645 29.12 46.7365 28.416C47.4405 27.68 47.7925 26.72 47.7925 25.536C47.7925 24 47.2965 22.896 46.3045 22.224C45.3445 21.52 43.7925 21.168 41.6485 21.168H40.1125V14.496H41.6485C43.2805 14.496 44.5925 14.224 45.5845 13.68C46.6085 13.104 47.1205 12.096 47.1205 10.656C47.1205 9.504 46.8005 8.608 46.1605 7.968C45.5205 7.328 44.6405 7.008 43.5205 7.008C42.3045 7.008 41.3925 7.376 40.7845 8.112C40.2085 8.848 39.8725 9.76 39.7765 10.848H31.7605Z" fill="url(#paint0_linear_500_3259)" fill-opacity="0.7"/>
<defs>
<linearGradient id="paint0_linear_500_3259" x1="-2" y1="-17" x2="43.882" y2="63.6054" gradientUnits="userSpaceOnUse">
<stop stop-color="#0E0F19" stop-opacity="0.7"/>
<stop offset="1" stop-color="#0E0F19" stop-opacity="0"/>
</linearGradient>
</defs>
</svg>
