<svg width="60" height="36" viewBox="0 0 60 36" fill="none" xmlns="http://www.w3.org/2000/svg">
<path d="M0.16 18C0.16 12.496 1.216 8.16 3.328 4.992C5.472 1.824 8.912 0.239997 13.648 0.239997C18.384 0.239997 21.808 1.824 23.92 4.992C26.064 8.16 27.136 12.496 27.136 18C27.136 23.568 26.064 27.936 23.92 31.104C21.808 34.272 18.384 35.856 13.648 35.856C8.912 35.856 5.472 34.272 3.328 31.104C1.216 27.936 0.16 23.568 0.16 18ZM19.072 18C19.072 14.768 18.72 12.288 18.016 10.56C17.312 8.8 15.856 7.92 13.648 7.92C11.44 7.92 9.984 8.8 9.28 10.56C8.576 12.288 8.224 14.768 8.224 18C8.224 20.176 8.352 21.984 8.608 23.424C8.864 24.832 9.376 25.984 10.144 26.88C10.944 27.744 12.112 28.176 13.648 28.176C15.184 28.176 16.336 27.744 17.104 26.88C17.904 25.984 18.432 24.832 18.688 23.424C18.944 21.984 19.072 20.176 19.072 18ZM31.6645 29.76V23.136L46.8325 1.44H56.0005V22.656H59.9365V29.76H56.0005V36H47.7925V29.76H31.6645ZM48.3685 10.464L40.3045 22.656H48.3685V10.464Z" fill="url(#paint0_linear_500_3264)" fill-opacity="0.7"/>
<defs>
<linearGradient id="paint0_linear_500_3264" x1="-2" y1="-17" x2="42.7335" y2="65.4528" gradientUnits="userSpaceOnUse">
<stop stop-color="#0E0F19" stop-opacity="0.7"/>
<stop offset="1" stop-color="#0E0F19" stop-opacity="0"/>
</linearGradient>
</defs>
</svg>
