<svg width="45" height="37" viewBox="0 0 45 37" fill="none" xmlns="http://www.w3.org/2000/svg">
<path d="M0.928555 18.062C0.928555 12.558 1.98455 8.22201 4.09656 5.05401C6.24055 1.88601 9.68055 0.302009 14.4166 0.302009C19.1526 0.302009 22.5766 1.88601 24.6886 5.05401C26.8326 8.22201 27.9046 12.558 27.9046 18.062C27.9046 23.63 26.8326 27.998 24.6886 31.166C22.5766 34.334 19.1526 35.918 14.4166 35.918C9.68055 35.918 6.24055 34.334 4.09656 31.166C1.98455 27.998 0.928555 23.63 0.928555 18.062ZM19.8406 18.062C19.8406 14.83 19.4886 12.35 18.7846 10.622C18.0806 8.86201 16.6246 7.98201 14.4166 7.98201C12.2086 7.98201 10.7526 8.86201 10.0486 10.622C9.34456 12.35 8.99256 14.83 8.99256 18.062C8.99256 20.238 9.12056 22.046 9.37656 23.486C9.63256 24.894 10.1446 26.046 10.9126 26.942C11.7126 27.806 12.8806 28.238 14.4166 28.238C15.9526 28.238 17.1046 27.806 17.8726 26.942C18.6726 26.046 19.2006 24.894 19.4566 23.486C19.7126 22.046 19.8406 20.238 19.8406 18.062ZM31.3771 8.65401V1.02201H44.6731V36.062H36.1291V8.65401H31.3771Z" fill="url(#paint0_linear_834_5769)" fill-opacity="0.7"/>
<defs>
<linearGradient id="paint0_linear_834_5769" x1="-1.23145" y1="-16.938" x2="48.7686" y2="55.062" gradientUnits="userSpaceOnUse">
<stop stop-color="white" stop-opacity="0.7"/>
<stop offset="1" stop-color="white" stop-opacity="0"/>
</linearGradient>
</defs>
</svg>
