<svg width="25" height="36" viewBox="0 0 25 36" fill="none" xmlns="http://www.w3.org/2000/svg">
<path d="M0.872 29.424C1.96 28.56 2.456 28.16 2.36 28.224C5.496 25.632 7.96 23.504 9.752 21.84C11.576 20.176 13.112 18.432 14.36 16.608C15.608 14.784 16.232 13.008 16.232 11.28C16.232 9.968 15.928 8.944 15.32 8.208C14.712 7.472 13.8 7.104 12.584 7.104C11.368 7.104 10.408 7.568 9.704 8.496C9.032 9.392 8.696 10.672 8.696 12.336H0.776C0.84 9.616 1.416 7.344 2.504 5.52C3.624 3.696 5.08 2.352 6.872 1.488C8.696 0.623998 10.712 0.191998 12.92 0.191998C16.728 0.191998 19.592 1.168 21.512 3.12C23.464 5.072 24.44 7.616 24.44 10.752C24.44 14.176 23.272 17.36 20.936 20.304C18.6 23.216 15.624 26.064 12.008 28.848H24.968V35.52H0.872V29.424Z" fill="url(#paint0_linear_834_3001)" fill-opacity="0.7"/>
<path d="M0.872 29.424C1.96 28.56 2.456 28.16 2.36 28.224C5.496 25.632 7.96 23.504 9.752 21.84C11.576 20.176 13.112 18.432 14.36 16.608C15.608 14.784 16.232 13.008 16.232 11.28C16.232 9.968 15.928 8.944 15.32 8.208C14.712 7.472 13.8 7.104 12.584 7.104C11.368 7.104 10.408 7.568 9.704 8.496C9.032 9.392 8.696 10.672 8.696 12.336H0.776C0.84 9.616 1.416 7.344 2.504 5.52C3.624 3.696 5.08 2.352 6.872 1.488C8.696 0.623998 10.712 0.191998 12.92 0.191998C16.728 0.191998 19.592 1.168 21.512 3.12C23.464 5.072 24.44 7.616 24.44 10.752C24.44 14.176 23.272 17.36 20.936 20.304C18.6 23.216 15.624 26.064 12.008 28.848H24.968V35.52H0.872V29.424Z" fill="url(#paint1_linear_834_3001)"/>
<defs>
<linearGradient id="paint0_linear_834_3001" x1="-1" y1="-17" x2="51.1492" y2="25.0531" gradientUnits="userSpaceOnUse">
<stop stop-color="#0E0F19" stop-opacity="0.7"/>
<stop offset="1" stop-color="#0E0F19" stop-opacity="0"/>
</linearGradient>
<linearGradient id="paint1_linear_834_3001" x1="13" y1="-17" x2="13" y2="55" gradientUnits="userSpaceOnUse">
<stop stop-color="#26AD00" stop-opacity="0.5"/>
<stop offset="1" stop-color="#26AD00" stop-opacity="0.05"/>
</linearGradient>
</defs>
</svg>
