<svg width="57" height="36" viewBox="0 0 57 36" fill="none" xmlns="http://www.w3.org/2000/svg">
<path d="M0.928555 18.062C0.928555 12.558 1.98455 8.22201 4.09656 5.05401C6.24055 1.88601 9.68055 0.302009 14.4166 0.302009C19.1526 0.302009 22.5766 1.88601 24.6886 5.05401C26.8326 8.22201 27.9046 12.558 27.9046 18.062C27.9046 23.63 26.8326 27.998 24.6886 31.166C22.5766 34.334 19.1526 35.918 14.4166 35.918C9.68055 35.918 6.24055 34.334 4.09656 31.166C1.98455 27.998 0.928555 23.63 0.928555 18.062ZM19.8406 18.062C19.8406 14.83 19.4886 12.35 18.7846 10.622C18.0806 8.86201 16.6246 7.98201 14.4166 7.98201C12.2086 7.98201 10.7526 8.86201 10.0486 10.622C9.34456 12.35 8.99256 14.83 8.99256 18.062C8.99256 20.238 9.12056 22.046 9.37656 23.486C9.63256 24.894 10.1446 26.046 10.9126 26.942C11.7126 27.806 12.8806 28.238 14.4166 28.238C15.9526 28.238 17.1046 27.806 17.8726 26.942C18.6726 26.046 19.2006 24.894 19.4566 23.486C19.7126 22.046 19.8406 20.238 19.8406 18.062ZM31.9531 29.486C33.0411 28.622 33.5371 28.222 33.4411 28.286C36.5771 25.694 39.0411 23.566 40.8331 21.902C42.6571 20.238 44.1931 18.494 45.4411 16.67C46.6891 14.846 47.3131 13.07 47.3131 11.342C47.3131 10.03 47.0091 9.00601 46.4011 8.27001C45.7931 7.53401 44.8811 7.16601 43.6651 7.16601C42.4491 7.16601 41.4891 7.63001 40.7851 8.55801C40.1131 9.45401 39.7771 10.734 39.7771 12.398H31.8571C31.9211 9.67801 32.4971 7.40601 33.5851 5.58201C34.7051 3.75801 36.1611 2.41401 37.9531 1.55001C39.7771 0.686009 41.7931 0.254009 44.0011 0.254009C47.8091 0.254009 50.6731 1.23001 52.5931 3.18201C54.5451 5.13401 55.5211 7.67801 55.5211 10.814C55.5211 14.238 54.3531 17.422 52.0171 20.366C49.6811 23.278 46.7051 26.126 43.0891 28.91H56.0491V35.582H31.9531V29.486Z" fill="url(#paint0_linear_834_5774)" fill-opacity="0.7"/>
<defs>
<linearGradient id="paint0_linear_834_5774" x1="-1.23145" y1="-16.938" x2="45.4187" y2="62.33" gradientUnits="userSpaceOnUse">
<stop stop-color="white" stop-opacity="0.7"/>
<stop offset="1" stop-color="white" stop-opacity="0"/>
</linearGradient>
</defs>
</svg>
