<svg width="25" height="37" viewBox="0 0 25 37" fill="none" xmlns="http://www.w3.org/2000/svg">
<path d="M0.448 10.848C0.576 7.424 1.696 4.784 3.808 2.928C5.92 1.072 8.784 0.143998 12.4 0.143998C14.8 0.143998 16.848 0.559999 18.544 1.392C20.272 2.224 21.568 3.36 22.432 4.8C23.328 6.24 23.776 7.856 23.776 9.648C23.776 11.76 23.248 13.488 22.192 14.832C21.136 16.144 19.904 17.04 18.496 17.52V17.712C20.32 18.32 21.76 19.328 22.816 20.736C23.872 22.144 24.4 23.952 24.4 26.16C24.4 28.144 23.936 29.904 23.008 31.44C22.112 32.944 20.784 34.128 19.024 34.992C17.296 35.856 15.232 36.288 12.832 36.288C8.992 36.288 5.92 35.344 3.616 33.456C1.344 31.568 0.144 28.72 0.0160002 24.912H7.984C8.016 26.32 8.416 27.44 9.184 28.272C9.952 29.072 11.072 29.472 12.544 29.472C13.792 29.472 14.752 29.12 15.424 28.416C16.128 27.68 16.48 26.72 16.48 25.536C16.48 24 15.984 22.896 14.992 22.224C14.032 21.52 12.48 21.168 10.336 21.168H8.8V14.496H10.336C11.968 14.496 13.28 14.224 14.272 13.68C15.296 13.104 15.808 12.096 15.808 10.656C15.808 9.504 15.488 8.608 14.848 7.968C14.208 7.328 13.328 7.008 12.208 7.008C10.992 7.008 10.08 7.376 9.472 8.112C8.896 8.848 8.56 9.76 8.464 10.848H0.448Z" fill="url(#paint0_linear_834_3006)" fill-opacity="0.7"/>
<path d="M0.448 10.848C0.576 7.424 1.696 4.784 3.808 2.928C5.92 1.072 8.784 0.143998 12.4 0.143998C14.8 0.143998 16.848 0.559999 18.544 1.392C20.272 2.224 21.568 3.36 22.432 4.8C23.328 6.24 23.776 7.856 23.776 9.648C23.776 11.76 23.248 13.488 22.192 14.832C21.136 16.144 19.904 17.04 18.496 17.52V17.712C20.32 18.32 21.76 19.328 22.816 20.736C23.872 22.144 24.4 23.952 24.4 26.16C24.4 28.144 23.936 29.904 23.008 31.44C22.112 32.944 20.784 34.128 19.024 34.992C17.296 35.856 15.232 36.288 12.832 36.288C8.992 36.288 5.92 35.344 3.616 33.456C1.344 31.568 0.144 28.72 0.0160002 24.912H7.984C8.016 26.32 8.416 27.44 9.184 28.272C9.952 29.072 11.072 29.472 12.544 29.472C13.792 29.472 14.752 29.12 15.424 28.416C16.128 27.68 16.48 26.72 16.48 25.536C16.48 24 15.984 22.896 14.992 22.224C14.032 21.52 12.48 21.168 10.336 21.168H8.8V14.496H10.336C11.968 14.496 13.28 14.224 14.272 13.68C15.296 13.104 15.808 12.096 15.808 10.656C15.808 9.504 15.488 8.608 14.848 7.968C14.208 7.328 13.328 7.008 12.208 7.008C10.992 7.008 10.08 7.376 9.472 8.112C8.896 8.848 8.56 9.76 8.464 10.848H0.448Z" fill="url(#paint1_linear_834_3006)"/>
<defs>
<linearGradient id="paint0_linear_834_3006" x1="-2" y1="-17" x2="50.796" y2="28.6157" gradientUnits="userSpaceOnUse">
<stop stop-color="#0E0F19" stop-opacity="0.7"/>
<stop offset="1" stop-color="#0E0F19" stop-opacity="0"/>
</linearGradient>
<linearGradient id="paint1_linear_834_3006" x1="13" y1="-17" x2="13" y2="55" gradientUnits="userSpaceOnUse">
<stop stop-color="#26AD00" stop-opacity="0.5"/>
<stop offset="1" stop-color="#26AD00" stop-opacity="0.05"/>
</linearGradient>
</defs>
</svg>
