<svg width="57" height="37" viewBox="0 0 57 37" fill="none" xmlns="http://www.w3.org/2000/svg">
<path d="M0.928555 18.062C0.928555 12.558 1.98455 8.22201 4.09656 5.05401C6.24055 1.88601 9.68055 0.302009 14.4166 0.302009C19.1526 0.302009 22.5766 1.88601 24.6886 5.05401C26.8326 8.22201 27.9046 12.558 27.9046 18.062C27.9046 23.63 26.8326 27.998 24.6886 31.166C22.5766 34.334 19.1526 35.918 14.4166 35.918C9.68055 35.918 6.24055 34.334 4.09656 31.166C1.98455 27.998 0.928555 23.63 0.928555 18.062ZM19.8406 18.062C19.8406 14.83 19.4886 12.35 18.7846 10.622C18.0806 8.86201 16.6246 7.98201 14.4166 7.98201C12.2086 7.98201 10.7526 8.86201 10.0486 10.622C9.34456 12.35 8.99256 14.83 8.99256 18.062C8.99256 20.238 9.12056 22.046 9.37656 23.486C9.63256 24.894 10.1446 26.046 10.9126 26.942C11.7126 27.806 12.8806 28.238 14.4166 28.238C15.9526 28.238 17.1046 27.806 17.8726 26.942C18.6726 26.046 19.2006 24.894 19.4566 23.486C19.7126 22.046 19.8406 20.238 19.8406 18.062ZM32.5291 10.91C32.6571 7.48601 33.7771 4.84601 35.8891 2.99001C38.0011 1.13401 40.8651 0.20601 44.4811 0.20601C46.8811 0.20601 48.9291 0.62201 50.6251 1.45401C52.3531 2.28601 53.6491 3.42201 54.5131 4.86201C55.4091 6.30201 55.8571 7.91801 55.8571 9.71001C55.8571 11.822 55.3291 13.55 54.2731 14.894C53.2171 16.206 51.9851 17.102 50.5771 17.582V17.774C52.4011 18.382 53.8411 19.39 54.8971 20.798C55.9531 22.206 56.4811 24.014 56.4811 26.222C56.4811 28.206 56.0171 29.966 55.0891 31.502C54.1931 33.006 52.8651 34.19 51.1051 35.054C49.3771 35.918 47.3131 36.35 44.9131 36.35C41.0731 36.35 38.0011 35.406 35.6971 33.518C33.4251 31.63 32.2251 28.782 32.0971 24.974H40.0651C40.0971 26.382 40.4971 27.502 41.2651 28.334C42.0331 29.134 43.1531 29.534 44.6251 29.534C45.8731 29.534 46.8331 29.182 47.5051 28.478C48.2091 27.742 48.5611 26.782 48.5611 25.598C48.5611 24.062 48.0651 22.958 47.0731 22.286C46.1131 21.582 44.5611 21.23 42.4171 21.23H40.8811V14.558H42.4171C44.0491 14.558 45.3611 14.286 46.3531 13.742C47.3771 13.166 47.8891 12.158 47.8891 10.718C47.8891 9.56601 47.5691 8.67001 46.9291 8.03001C46.2891 7.39001 45.4091 7.07001 44.2891 7.07001C43.0731 7.07001 42.1611 7.43801 41.5531 8.17401C40.9771 8.91001 40.6411 9.82201 40.5451 10.91H32.5291Z" fill="url(#paint0_linear_834_5779)" fill-opacity="0.7"/>
<defs>
<linearGradient id="paint0_linear_834_5779" x1="-1.23145" y1="-16.938" x2="44.6505" y2="63.6674" gradientUnits="userSpaceOnUse">
<stop stop-color="white" stop-opacity="0.7"/>
<stop offset="1" stop-color="white" stop-opacity="0"/>
</linearGradient>
</defs>
</svg>
