<svg width="120" height="120" viewBox="0 0 120 120" fill="none" xmlns="http://www.w3.org/2000/svg">
<g clip-path="url(#clip0_834_3123)">
<path d="M116.234 19.3591H78.0094C75.9305 19.3591 74.243 21.0443 74.243 23.1255V30.7334C74.243 32.8123 75.9305 34.4998 78.0094 34.4998H94.1555L61.118 67.5349L47.1117 53.5287C44.1539 50.5732 39.3609 50.5732 36.4031 53.5287L1.10391 88.8326C-0.367969 90.3021 -0.367969 92.688 1.10391 94.1576L6.48281 99.5388C7.95234 101.008 10.3383 101.008 11.8078 99.5388L41.7586 69.588L55.7625 83.5943C58.7201 86.5528 63.5137 86.554 66.4711 83.5943L104.859 45.206V61.3521C104.859 63.431 106.545 65.1185 108.626 65.1185H116.234C118.315 65.1185 120 63.431 120 61.3521V23.1255C120 21.0443 118.315 19.3591 116.234 19.3591Z" fill="url(#paint0_linear_834_3123)" fill-opacity="0.05"/>
</g>
<defs>
<linearGradient id="paint0_linear_834_3123" x1="60" y1="19.3591" x2="60" y2="100.641" gradientUnits="userSpaceOnUse">
<stop stop-color="white"/>
<stop offset="1" stop-color="white" stop-opacity="0"/>
</linearGradient>
<clipPath id="clip0_834_3123">
<rect width="120" height="120" fill="white"/>
</clipPath>
</defs>
</svg>
