<svg width="24" height="25" viewBox="0 0 24 25" fill="none" xmlns="http://www.w3.org/2000/svg">
<g clip-path="url(#clip0_834_2842)">
<path d="M0 0.5H24V24.5H0V0.5Z" fill="#F7931A"/>
<path d="M17.1144 11.0867C17.3358 9.58938 16.2024 8.79205 14.6411 8.24938L15.1478 6.23205L13.9131 5.92538L13.4211 7.89338L12.4371 7.65738L12.9371 5.67605L11.7038 5.36938L11.1971 7.39338L10.4131 7.20805V7.20138L8.7091 6.77472L8.3811 8.09205C8.3811 8.09205 9.2931 8.30538 9.27977 8.31338C9.77844 8.44138 9.86377 8.76938 9.8491 9.02672L9.27977 11.3374L9.40777 11.3801L9.27177 11.3507L8.46644 14.5814C8.4091 14.7307 8.2531 14.9587 7.90244 14.8667C7.9171 14.8881 7.01177 14.6534 7.01177 14.6534L6.39844 16.0574L8.00244 16.4574L8.87977 16.6841L8.36644 18.7307L9.59977 19.0374L10.0984 17.0121L11.0904 17.2694L10.5838 19.2867L11.8171 19.5934L12.3238 17.5467C14.4264 17.9467 16.0104 17.7894 16.6731 15.8854C17.2078 14.3521 16.6451 13.4761 15.5398 12.8907C16.3451 12.7134 16.9518 12.1787 17.1078 11.0867H17.1144ZM14.2984 15.0374C13.9211 16.5707 11.3398 15.7361 10.5051 15.5361L11.1824 12.8201C12.0171 13.0334 14.6984 13.4401 14.2984 15.0307V15.0374ZM14.6771 11.0654C14.3344 12.4561 12.1811 11.7507 11.4904 11.5787L12.1038 9.12005C12.8011 9.29072 15.0398 9.61872 14.6771 11.0667V11.0654Z" fill="white"/>
</g>
<defs>
<clipPath id="clip0_834_2842">
<rect width="24" height="24" fill="white" transform="translate(0 0.5)"/>
</clipPath>
</defs>
</svg>
