<svg width="24" height="25" viewBox="0 0 24 25" fill="none" xmlns="http://www.w3.org/2000/svg">
<g clip-path="url(#clip0_834_2828)">
<path d="M0 0.5H24V24.5H0V0.5Z" fill="#C4162E"/>
<path d="M5.52966 16.5C7.27366 16.5 8.48299 15.4013 8.48299 13.7827V13.772C8.48299 12.3147 7.43232 11.26 5.97633 11.26C5.20433 11.26 4.57366 11.576 4.25366 12.096H4.22166L4.41099 9.92H8.02032V8.63333H3.14966L2.79766 13.172H4.17499C4.26833 13.012 4.39499 12.8613 4.54299 12.744C4.80566 12.5347 5.14166 12.4173 5.54033 12.4173C6.37099 12.4173 6.96433 12.9907 6.96966 13.804V13.816C6.96966 14.64 6.37633 15.22 5.53499 15.22C4.79499 15.22 4.25366 14.7693 4.13766 14.1853L4.13233 14.148H2.66699L2.67233 14.228C2.76033 15.52 3.86433 16.5 5.52966 16.5ZM11.8483 16.5C13.7497 16.5 14.9057 14.9627 14.9057 12.5027V12.492C14.9057 10.032 13.7497 8.5 11.8483 8.5C9.94166 8.5 8.78566 10.0333 8.78566 12.492V12.5027C8.78566 14.9627 9.94032 16.5 11.8483 16.5ZM11.8483 15.2027C10.9177 15.2027 10.3923 14.2013 10.3923 12.5027V12.492C10.3923 10.7933 10.9177 9.79733 11.8483 9.79733C12.7723 9.79733 13.303 10.7933 13.303 12.492V12.5027C13.303 14.2013 12.7723 15.2027 11.8483 15.2027ZM18.2763 16.5C20.1777 16.5 21.3337 14.9627 21.3337 12.5027V12.492C21.3337 10.032 20.1777 8.5 18.2763 8.5C16.3697 8.5 15.2137 10.0333 15.2137 12.492V12.5027C15.2137 14.9627 16.3697 16.5 18.2763 16.5ZM18.2763 15.2027C17.3457 15.2027 16.8203 14.2013 16.8203 12.5027V12.492C16.8203 10.7933 17.3457 9.79733 18.2763 9.79733C19.2003 9.79733 19.731 10.7933 19.731 12.492V12.5027C19.731 14.2013 19.2003 15.2027 18.2763 15.2027Z" fill="white"/>
</g>
<defs>
<clipPath id="clip0_834_2828">
<rect y="0.5" width="24" height="24" rx="12" fill="white"/>
</clipPath>
</defs>
</svg>
