<svg width="24" height="24" viewBox="0 0 24 24" fill="none" xmlns="http://www.w3.org/2000/svg">
<path d="M16.5 2V5.5M7.5 2V5.5" stroke="#26AD00" stroke-width="1.5" stroke-linecap="round" stroke-linejoin="round"/>
<path d="M21 12.5V11.5C21 7.72876 21 5.84315 19.8284 4.67157C18.6568 3.5 16.7712 3.5 13 3.5H11C7.22876 3.5 5.34315 3.5 4.17157 4.67157C3 5.84315 3 7.72876 3 11.5V13.5C3 17.2712 3 19.1569 4.17157 20.3284C5.34315 21.5 7.22876 21.5 11 21.5" stroke="#26AD00" stroke-width="1.5" stroke-linecap="round" stroke-linejoin="round"/>
<path d="M3.5 9H20.5" stroke="#26AD00" stroke-width="1.5" stroke-linecap="round" stroke-linejoin="round"/>
<path d="M17 22C19.2091 22 21 20.2091 21 18C21 15.7909 19.2091 14 17 14C14.7909 14 13 15.7909 13 18C13 20.2091 14.7909 22 17 22Z" stroke="#26AD00" stroke-width="1.5" stroke-linecap="round" stroke-linejoin="round"/>
<path d="M18 19L17 18V16" stroke="#26AD00" stroke-width="1.5" stroke-linecap="round" stroke-linejoin="round"/>
</svg>
