<svg width="32" height="32" viewBox="0 0 32 32" fill="none" xmlns="http://www.w3.org/2000/svg">
<g clip-path="url(#clip0_500_3080)">
<path d="M26 2.66667H24V0.666667C24 0.298667 23.7013 0 23.3333 0C22.9653 0 22.6667 0.298667 22.6667 0.666667V2.66667H9.33333V0.666667C9.33333 0.298667 9.03467 0 8.66667 0C8.29867 0 8 0.298667 8 0.666667V2.66667H6C2.692 2.66667 0 5.35867 0 8.66667V26C0 29.308 2.692 32 6 32H26C29.308 32 32 29.308 32 26V8.66667C32 5.35867 29.308 2.66667 26 2.66667ZM6 4H26C28.5733 4 30.6667 6.09333 30.6667 8.66667V10.6667H1.33333V8.66667C1.33333 6.09333 3.42667 4 6 4ZM26 30.6667H6C3.42667 30.6667 1.33333 28.5733 1.33333 26V12H30.6667V26C30.6667 28.5733 28.5733 30.6667 26 30.6667ZM25.3333 18C25.3333 18.368 25.0347 18.6667 24.6667 18.6667H7.33333C6.96533 18.6667 6.66667 18.368 6.66667 18C6.66667 17.632 6.96533 17.3333 7.33333 17.3333H24.6667C25.0347 17.3333 25.3333 17.632 25.3333 18ZM16 24.6667C16 25.0347 15.7013 25.3333 15.3333 25.3333H7.33333C6.96533 25.3333 6.66667 25.0347 6.66667 24.6667C6.66667 24.2987 6.96533 24 7.33333 24H15.3333C15.7013 24 16 24.2987 16 24.6667Z" fill="#26AD00"/>
</g>
<defs>
<clipPath id="clip0_500_3080">
<rect width="32" height="32" fill="white"/>
</clipPath>
</defs>
</svg>
