<svg width="53" height="52" viewBox="0 0 53 52" fill="none" xmlns="http://www.w3.org/2000/svg">
<g filter="url(#filter0_dii_500_15253)">
<path d="M2.66699 11C2.66699 5.47715 7.14414 1 12.667 1H40.667C46.1898 1 50.667 5.47715 50.667 11V39C50.667 44.5229 46.1898 49 40.667 49H12.667C7.14414 49 2.66699 44.5228 2.66699 39V11Z" fill="#26AD00"/>
<path d="M3.66699 11C3.66699 6.02944 7.69643 2 12.667 2H40.667C45.6376 2 49.667 6.02944 49.667 11V39C49.667 43.9706 45.6376 48 40.667 48H12.667C7.69643 48 3.66699 43.9706 3.66699 39V11Z" stroke="url(#paint0_linear_500_15253)" stroke-width="2"/>
<path d="M23.0473 21.8534C23.7433 23.303 24.6921 24.6616 25.8936 25.8632C27.0952 27.0648 28.4539 28.0136 29.9035 28.7096C30.0282 28.7694 30.0905 28.7994 30.1694 28.8224C30.4498 28.9041 30.794 28.8454 31.0314 28.6754C31.0983 28.6275 31.1554 28.5704 31.2697 28.4561C31.6193 28.1064 31.7941 27.9316 31.9699 27.8174C32.6328 27.3864 33.4874 27.3864 34.1503 27.8174C34.326 27.9316 34.5009 28.1064 34.8505 28.4561L35.0453 28.6509C35.5768 29.1824 35.8425 29.4481 35.9868 29.7335C36.2739 30.301 36.2739 30.9713 35.9868 31.5389C35.8425 31.8242 35.5768 32.09 35.0453 32.6214L34.8877 32.779C34.3581 33.3087 34.0933 33.5735 33.7332 33.7757C33.3337 34.0001 32.7132 34.1615 32.255 34.1601C31.8421 34.1589 31.5598 34.0788 30.9954 33.9186C27.962 33.0576 25.0996 31.4332 22.7117 29.0452C20.3237 26.6572 18.6992 23.7948 17.8382 20.7614C17.678 20.197 17.5979 19.9148 17.5967 19.5018C17.5953 19.0436 17.7567 18.4231 17.9811 18.0236C18.1834 17.6636 18.4482 17.3988 18.9778 16.8691L19.1354 16.7115C19.6669 16.1801 19.9326 15.9143 20.218 15.77C20.7855 15.4829 21.4558 15.4829 22.0234 15.77C22.3087 15.9143 22.5745 16.1801 23.1059 16.7115L23.3008 16.9064C23.6504 17.256 23.8252 17.4308 23.9395 17.6066C24.3705 18.2694 24.3705 19.124 23.9395 19.7869C23.8252 19.9627 23.6504 20.1375 23.3008 20.4871C23.1865 20.6014 23.1293 20.6586 23.0815 20.7254C22.9114 20.9628 22.8527 21.3071 22.9345 21.5874C22.9575 21.6663 22.9874 21.7287 23.0473 21.8534Z" stroke="white" stroke-width="2" stroke-linecap="round" stroke-linejoin="round"/>
</g>
<defs>
<filter id="filter0_dii_500_15253" x="0.666992" y="0" width="52" height="52" filterUnits="userSpaceOnUse" color-interpolation-filters="sRGB">
<feFlood flood-opacity="0" result="BackgroundImageFix"/>
<feColorMatrix in="SourceAlpha" type="matrix" values="0 0 0 0 0 0 0 0 0 0 0 0 0 0 0 0 0 0 127 0" result="hardAlpha"/>
<feOffset dy="1"/>
<feGaussianBlur stdDeviation="1"/>
<feComposite in2="hardAlpha" operator="out"/>
<feColorMatrix type="matrix" values="0 0 0 0 0.0627451 0 0 0 0 0.0941176 0 0 0 0 0.156863 0 0 0 0.05 0"/>
<feBlend mode="normal" in2="BackgroundImageFix" result="effect1_dropShadow_500_15253"/>
<feBlend mode="normal" in="SourceGraphic" in2="effect1_dropShadow_500_15253" result="shape"/>
<feColorMatrix in="SourceAlpha" type="matrix" values="0 0 0 0 0 0 0 0 0 0 0 0 0 0 0 0 0 0 127 0" result="hardAlpha"/>
<feOffset dy="-2"/>
<feComposite in2="hardAlpha" operator="arithmetic" k2="-1" k3="1"/>
<feColorMatrix type="matrix" values="0 0 0 0 0.0627451 0 0 0 0 0.0941176 0 0 0 0 0.156863 0 0 0 0.05 0"/>
<feBlend mode="normal" in2="shape" result="effect2_innerShadow_500_15253"/>
<feColorMatrix in="SourceAlpha" type="matrix" values="0 0 0 0 0 0 0 0 0 0 0 0 0 0 0 0 0 0 127 0" result="hardAlpha"/>
<feMorphology radius="1" operator="erode" in="SourceAlpha" result="effect3_innerShadow_500_15253"/>
<feOffset/>
<feComposite in2="hardAlpha" operator="arithmetic" k2="-1" k3="1"/>
<feColorMatrix type="matrix" values="0 0 0 0 0.0627451 0 0 0 0 0.0941176 0 0 0 0 0.156863 0 0 0 0.18 0"/>
<feBlend mode="normal" in2="effect2_innerShadow_500_15253" result="effect3_innerShadow_500_15253"/>
</filter>
<linearGradient id="paint0_linear_500_15253" x1="26.667" y1="1" x2="26.667" y2="49" gradientUnits="userSpaceOnUse">
<stop stop-color="white" stop-opacity="0.12"/>
<stop offset="1" stop-color="white" stop-opacity="0"/>
</linearGradient>
</defs>
</svg>
