<svg width="23" height="22" viewBox="0 0 23 22" fill="none" xmlns="http://www.w3.org/2000/svg">
<path d="M5.42786 10.2288C5.3657 9.82823 5.33346 9.41786 5.33346 9C5.33346 4.58172 8.93874 1 13.3861 1C17.8334 1 21.4387 4.58172 21.4387 9C21.4387 9.99807 21.2547 10.9535 20.9187 11.8345C20.8488 12.0175 20.8139 12.109 20.7981 12.1804C20.7824 12.2512 20.7763 12.301 20.7746 12.3735C20.7729 12.4466 20.7828 12.5272 20.8027 12.6883L21.2052 15.9585C21.2488 16.3125 21.2706 16.4895 21.2117 16.6182C21.1601 16.731 21.0685 16.8205 20.9546 16.8695C20.8246 16.9254 20.6481 16.8995 20.2952 16.8478L17.1099 16.3809C16.9436 16.3565 16.8605 16.3443 16.7847 16.3448C16.7098 16.3452 16.658 16.3507 16.5846 16.3661C16.5105 16.3817 16.4158 16.4172 16.2265 16.4881C15.3432 16.819 14.3859 17 13.3861 17C12.9679 17 12.5572 16.9683 12.1562 16.9073M6.96507 21C9.92997 21 12.3335 18.5376 12.3335 15.5C12.3335 12.4624 9.92997 10 6.96507 10C4.00018 10 1.59665 12.4624 1.59665 15.5C1.59665 16.1106 1.69377 16.6979 1.87305 17.2467C1.94883 17.4787 1.98672 17.5947 1.99915 17.6739C2.01214 17.7567 2.01441 17.8031 2.00958 17.8867C2.00494 17.9668 1.98491 18.0573 1.94484 18.2383L1.3335 21L4.3283 20.591C4.49176 20.5687 4.57349 20.5575 4.64486 20.558C4.72002 20.5585 4.7599 20.5626 4.8336 20.5773C4.9036 20.5912 5.00766 20.6279 5.21577 20.7014C5.76409 20.8949 6.3526 21 6.96507 21Z" stroke="white" stroke-width="2" stroke-linecap="round" stroke-linejoin="round"/>
</svg>
