<svg width="32" height="32" viewBox="0 0 32 32" fill="none" xmlns="http://www.w3.org/2000/svg">
<g clip-path="url(#clip0_500_3074)">
<path d="M16 32C7.17733 32 0 24.8227 0 16C0 7.17733 7.17733 0 16 0C24.8227 0 32 7.17733 32 16C32 24.8227 24.8227 32 16 32ZM16 1.33333C7.91333 1.33333 1.33333 7.91333 1.33333 16C1.33333 24.0867 7.91333 30.6667 16 30.6667C24.0867 30.6667 30.6667 24.0867 30.6667 16C30.6667 7.91333 24.0867 1.33333 16 1.33333ZM22.6667 16.6667C22.6667 16.2987 22.368 16 22 16H16V7.33333C16 6.96533 15.7013 6.66667 15.3333 6.66667C14.9653 6.66667 14.6667 6.96533 14.6667 7.33333V16.6667C14.6667 17.0347 14.9653 17.3333 15.3333 17.3333H22C22.368 17.3333 22.6667 17.0347 22.6667 16.6667Z" fill="#26AD00"/>
</g>
<defs>
<clipPath id="clip0_500_3074">
<rect width="32" height="32" fill="white"/>
</clipPath>
</defs>
</svg>
