<svg width="200" height="31" viewBox="0 0 200 31" fill="none" xmlns="http://www.w3.org/2000/svg">
<path d="M24.0357 4.30407C24.6635 3.22804 25.65 2.24169 26.9057 1.61401C28.8787 0.717322 31.4796 1.16567 33.1837 2.51069C34.7083 3.85572 35.6052 5.82843 35.1568 7.98048C35.6052 7.98048 35.8743 7.71147 36.3227 7.53214C38.7442 6.81479 41.2554 7.53214 42.8698 9.59451C44.0357 11.1189 44.3944 13.3606 43.5873 15.0643C43.3182 15.961 42.6904 16.6783 41.9729 17.4854L42.1523 17.6647C44.3944 17.844 46.6366 19.4581 47.3541 21.6998C48.0716 23.9415 47.5335 26.1832 45.8294 27.7972C44.4841 29.1423 42.8698 29.5906 41.0761 29.4113H7.35408C4.48413 29.4113 2.42135 28.2456 1.4348 25.8245C0.537937 23.7622 0.986368 21.0721 2.60072 19.4581C3.67695 18.382 5.02224 17.9337 6.45722 17.6647C4.84287 16.1403 4.03569 14.0779 4.48413 11.8362C4.6635 10.2222 6.09848 8.24949 7.8922 7.62181C9.41686 6.99412 11.4796 7.17346 12.9146 7.89081C12.4662 5.46976 13.5424 3.31771 15.6052 1.97268C17.3989 0.806991 20.1792 0.806991 21.9729 2.15202C22.8698 2.69003 23.5873 3.58672 24.0357 4.30407Z" fill="white"/>
<path d="M33.5425 5.20076C33.2734 4.57308 32.825 4.03507 32.2869 3.58672C30.9416 2.42103 28.6994 2.24169 27.0851 3.13838C25.5604 3.85573 24.6636 5.55943 24.6636 7.17347H26.6367C26.816 7.3528 26.9057 7.3528 27.0851 7.44247C26.2779 8.07015 24.7533 8.60816 25.112 9.86353L27.1748 23.1345L33.0044 10.0429C33.9012 8.5185 34.3497 6.72512 33.5425 5.20076Z" fill="#645FA9"/>
<path d="M21.0764 22.9552L23.4979 7.80123C23.6773 6.72521 23.3185 5.73885 22.8701 4.84217C22.4217 3.85581 21.5248 3.22813 20.6279 2.77979C19.0136 2.06244 16.8611 2.51078 15.6952 3.67648C14.5293 4.84217 13.9015 6.63554 14.5293 8.42891L20.4486 21.6999L21.0764 22.9552Z" fill="#C8234A"/>
<path d="M42.2419 11.119C42.9594 12.464 42.8697 14.5264 41.9728 15.6921C41.345 16.5888 40.4482 17.0371 39.7307 17.6648L27.354 26.1833L27.5334 25.735L34.0805 11.0293C35.1567 9.23594 36.9504 8.33925 38.8338 8.60826C40.1791 8.96693 41.5244 9.86362 42.2419 11.119Z" fill="#0088CF"/>
<path d="M7.2643 16.6785L20.9863 26.0937H21.1656L14.3495 11.0294C13.1836 9.0567 10.7621 8.16001 8.51991 8.96703C7.17462 9.59471 6.09838 10.7604 5.82933 12.1054C5.11184 13.8091 5.73964 15.6025 7.2643 16.6785Z" fill="#F26F21"/>
<path d="M45.2017 26.542C46.278 25.3763 46.3676 23.2242 45.8295 21.9689C45.3811 20.8928 44.4842 19.9961 43.408 19.5478C42.0627 18.9201 40.269 19.0995 39.1031 19.8168L26.9058 28.2457H41.5246C42.9596 28.2457 44.1255 27.7076 45.2017 26.542Z" fill="#0DB04B"/>
<path d="M21.3452 28.2458L9.14789 19.6376C7.98197 18.9203 6.18825 18.7409 4.84296 19.3686C3.76673 19.8169 2.86987 20.7136 2.42144 21.7897C1.70395 23.314 1.97301 25.1971 3.04924 26.3628C3.9461 27.5284 5.29139 28.1561 6.81606 28.1561L21.3452 28.2458Z" fill="#FCB813"/>
<path d="M76.0535 12.0156C75.4257 9.32556 73.3629 8.60821 70.8517 8.42887C62.9593 7.71152 61.614 13.6297 61.614 16.1404C61.614 20.4445 62.7799 23.8519 70.5826 23.8519C72.1073 23.8519 75.9638 22.3275 75.9638 19.9961H87.1745C86.7261 27.1696 74.7978 28.7836 69.5961 28.7836C58.8337 28.7836 49.5961 26.8109 50.0445 16.1404C50.3135 8.51854 57.4884 3.22809 71.7485 3.58677C79.6409 3.7661 87.2642 6.27683 87.2642 11.9259H76.0535V12.0156Z" fill="black"/>
<path d="M187.802 12.0157C187.175 9.32563 185.112 8.60828 182.601 8.42894C174.708 7.71159 173.363 13.6297 173.363 16.0508C173.363 20.3549 174.529 23.7623 182.332 23.7623C183.856 23.7623 187.713 22.2379 187.713 19.9065H198.924C198.475 27.08 186.547 28.694 181.345 28.694C170.583 28.694 161.345 26.7213 161.794 16.0508C162.063 8.42894 169.237 3.13849 183.498 3.49717C191.39 3.67651 199.103 6.18723 199.103 11.8363H187.802V12.0157Z" fill="black"/>
<path d="M89.3271 4.12476H103.767L116.143 21.4308H116.323V4.12476H125.56V28.0663H111.749L98.8339 10.7602H98.6545V28.0663H89.3271C89.3271 28.1559 89.3271 4.12476 89.3271 4.12476Z" fill="black"/>
<path d="M128.34 4.12476H145.919C154.439 4.12476 159.282 6.54581 159.282 10.0429C159.282 12.1053 157.219 14.7953 152.556 15.5127C158.026 15.7817 160.179 19.3684 160.179 21.4308C160.179 25.7349 155.426 27.9766 145.919 27.9766H128.34V4.12476ZM138.654 13.54H141.614C146.098 13.54 148.43 13.271 148.43 11.2982C148.43 9.32554 146.457 8.60819 142.511 8.60819H138.744V13.54H138.654ZM138.654 23.2242H141.614C146.995 23.2242 149.058 22.5965 149.058 20.8031C149.058 18.8304 146.547 18.1131 142.511 18.1131H138.744V23.1345H138.654V23.2242Z" fill="black"/>
</svg>
