<svg width="32" height="32" viewBox="0 0 32 32" fill="none" xmlns="http://www.w3.org/2000/svg">
<g clip-path="url(#clip0_500_3068)">
<path d="M4.42267 5.97076C4.13733 5.72409 4.112 5.28676 4.37067 5.01209C5.10133 4.23876 5.90667 3.54009 6.77467 2.92676C7.08267 2.70943 7.512 2.79609 7.71733 3.11343L7.72267 3.12276C7.91733 3.42409 7.836 3.82276 7.54267 4.03076C6.752 4.59076 6.02 5.22676 5.356 5.92809C5.10933 6.18943 4.70267 6.21343 4.432 5.97743L4.42267 5.97076ZM11.6867 1.30676C11.788 1.65209 12.144 1.85076 12.492 1.76409C13.416 1.53476 14.3733 1.39076 15.3573 1.34676C15.716 1.33076 16 1.04009 16 0.681428C16 0.304095 15.6867 -0.00123843 15.3093 0.0147616C14.244 0.0600949 13.188 0.210762 12.16 0.464095C11.7933 0.554762 11.5787 0.936095 11.6853 1.29876L11.6867 1.30676ZM0.837333 13.8214L0.853333 13.8241C1.20933 13.8748 1.53733 13.6348 1.60267 13.2814C1.78267 12.3188 2.056 11.3894 2.41333 10.5028C2.548 10.1694 2.40133 9.79076 2.07467 9.64143L2.06267 9.63609C1.71867 9.47876 1.31067 9.63609 1.168 9.98676C0.768 10.9734 0.466667 11.9974 0.272 13.0441C0.202667 13.4148 0.461333 13.7694 0.834667 13.8214H0.837333ZM1.604 18.7201C1.53733 18.3668 1.20933 18.1268 0.853333 18.1774L0.836 18.1801C0.462667 18.2334 0.204 18.5868 0.273333 18.9588C0.469333 20.0068 0.769333 21.0308 1.16933 22.0174C1.312 22.3668 1.72 22.5254 2.064 22.3681L2.07733 22.3628C2.404 22.2134 2.55067 21.8334 2.416 21.5014C2.05733 20.6148 1.784 19.6854 1.604 18.7228V18.7201ZM14.312 16.5001L14.936 16.0001L14.312 15.5014C13.4147 14.7841 11.268 12.8241 10.7013 10.1388C10.6333 9.81876 10.6307 9.14009 11.0467 8.62676C11.2773 8.34143 11.724 8.00143 12.54 8.00143H19.4627C20.276 8.00143 20.7213 8.34009 20.9533 8.62409C21.4667 9.25476 21.3187 10.0481 21.3013 10.1361C20.7347 12.8241 18.588 14.7841 17.6907 15.5014L17.0667 16.0014L17.6907 16.5014C18.588 17.2188 20.7347 19.1788 21.3013 21.8641C21.32 21.9534 21.4667 22.7481 20.9533 23.3788C20.7213 23.6628 20.276 24.0014 19.4627 24.0014H12.54C11.7253 24.0014 11.2787 23.6614 11.0467 23.3761C10.6307 22.8614 10.6333 22.1828 10.7013 21.8628C11.2667 19.1774 13.4147 17.2174 14.312 16.5001ZM15.1453 14.4601L16.0013 15.1468L16.8587 14.4614C17.644 13.8334 19.52 12.1281 19.9973 9.86409C20.008 9.80143 20.012 9.57476 19.9173 9.46276C19.824 9.35209 19.592 9.33476 19.4627 9.33476H12.54C12.4107 9.33476 12.1787 9.35209 12.0853 9.46276C11.9907 9.57476 11.9947 9.79876 12.0067 9.86809C12.4827 12.1268 14.36 13.8334 15.1453 14.4601ZM12.0067 22.1374C11.996 22.2014 11.992 22.4268 12.0867 22.5388C12.18 22.6494 12.412 22.6668 12.5413 22.6668H19.464C19.5933 22.6668 19.8253 22.6494 19.9187 22.5388C20.012 22.4268 20.008 22.2014 19.9973 22.1321C19.5213 19.8748 17.644 18.1681 16.8587 17.5414L16.0013 16.8548L15.1453 17.5401C14.36 18.1681 12.4827 19.8734 12.0067 22.1374ZM26.5453 4.00009H31.3333C31.7013 4.00009 32 3.70143 32 3.33343C32 2.96543 31.7013 2.66676 31.3333 2.66676H26C24.8973 2.66676 24 3.56409 24 4.66676V10.0001C24 10.3681 24.2987 10.6668 24.6667 10.6668C25.0347 10.6668 25.3333 10.3681 25.3333 10.0001V4.71343C28.7187 7.51209 30.6667 11.5868 30.6667 16.0001C30.6667 24.0868 24.0867 30.6668 16 30.6668C11.5067 30.6668 7.324 28.6481 4.52133 25.1308C4.29333 24.8428 3.87467 24.7961 3.584 25.0241C3.296 25.2534 3.24933 25.6734 3.47733 25.9614C6.53333 29.7988 11.0973 32.0001 15.9987 32.0001C24.8213 32.0001 31.9987 24.8228 31.9987 16.0001C31.9987 11.3468 30.0133 7.04143 26.5453 4.00009Z" fill="#26AD00"/>
</g>
<defs>
<clipPath id="clip0_500_3068">
<rect width="32" height="32" fill="white"/>
</clipPath>
</defs>
</svg>
