<svg width="32" height="32" viewBox="0 0 32 32" fill="none" xmlns="http://www.w3.org/2000/svg">
<path d="M11.1678 4C10.8826 4.10657 10.6021 4.22283 10.3267 4.34835M27.6238 21.7348C27.76 21.4399 27.8856 21.1389 28.0002 20.8327M24.6652 25.8196C24.8942 25.6059 25.1155 25.3841 25.3286 25.1547M20.3587 28.4964C20.6175 28.3988 20.8723 28.2933 21.123 28.1801M16.2082 29.3252C15.9003 29.3359 15.5903 29.3359 15.2823 29.3252M10.3833 28.1872C10.6243 28.2956 10.8693 28.3971 11.1178 28.4911M6.23025 25.2277C6.4125 25.4209 6.60057 25.6085 6.79418 25.7904M3.51045 20.886C3.61029 21.1496 3.71841 21.4092 3.83447 21.6644M2.67347 16.6737C2.66482 16.3963 2.66485 16.1171 2.67347 15.8392M3.50078 11.6495C3.59886 11.3889 3.70503 11.1322 3.81898 10.8797M6.20821 7.30564C6.40109 7.10019 6.60051 6.90097 6.80618 6.70832" stroke="#26AD00" stroke-width="2.2" stroke-linecap="round" stroke-linejoin="round"/>
<path d="M18 16C18 17.1045 17.1045 18 16 18C14.8955 18 14 17.1045 14 16C14 14.8955 14.8955 14 16 14M18 16C18 14.8955 17.1045 14 16 14M18 16H21.3333M16 14V8" stroke="#26AD00" stroke-width="2.2" stroke-linecap="round"/>
<path d="M29.3333 15.9998C29.3333 8.63604 23.3637 2.6665 16 2.6665" stroke="#26AD00" stroke-width="2.2" stroke-linecap="round"/>
</svg>
