<svg width="24" height="25" viewBox="0 0 24 25" fill="none" xmlns="http://www.w3.org/2000/svg">
<g clip-path="url(#clip0_834_2855)">
<path d="M0 0.5H24V24.5H0V0.5Z" fill="#F0F3FA"/>
<path d="M12 3.83325V10.2333L17.3333 12.6599L12 3.83325Z" fill="#8FFCF3"/>
<path d="M12.0003 3.8335L6.66699 12.6602L12.0003 10.2335V3.8335Z" fill="#CABCF8"/>
<path d="M12 16.8067V21.1667L17.3333 13.6733L12 16.8067Z" fill="#CBA7F5"/>
<path d="M12.0003 21.1667V16.8067L6.66699 13.6733L12.0003 21.1667Z" fill="#74A0F3"/>
<path d="M12 15.8067L17.3333 12.6601L12 10.2334V15.8067Z" fill="#CBA7F5"/>
<path d="M6.66699 12.6601L12.0003 15.8067V10.2334L6.66699 12.6601Z" fill="#74A0F3"/>
<path fill-rule="evenodd" clip-rule="evenodd" d="M12.0003 15.8068L6.66699 12.6602L12.0003 3.8335L17.3337 12.6602L12.0003 15.8068ZM7.02699 12.4068L11.9203 4.30016V10.1935L7.02699 12.4068ZM6.94699 12.6202L11.9203 10.3802V15.5535L6.93366 12.6202H6.94699ZM12.0803 10.3802V15.5535L17.0537 12.6202L12.0803 10.3802ZM12.0803 10.1935L16.9737 12.4068L12.0803 4.30016V10.1935Z" fill="#202699"/>
<path fill-rule="evenodd" clip-rule="evenodd" d="M12.0003 16.7402L6.66699 13.6735L12.0003 21.1668L17.3337 13.6602L12.0003 16.7402ZM7.26699 14.2068L11.9203 16.8868V20.7535L7.25366 14.2202L7.26699 14.2068ZM12.0803 16.8868V20.7535L16.747 14.2202L12.0803 16.8868Z" fill="#202699"/>
</g>
<defs>
<clipPath id="clip0_834_2855">
<rect width="24" height="24" fill="white" transform="translate(0 0.5)"/>
</clipPath>
</defs>
</svg>
