<svg width="73" height="72" viewBox="0 0 73 72" fill="none" xmlns="http://www.w3.org/2000/svg">
<circle cx="36.5" cy="36" r="36" fill="#26AD00" fill-opacity="0.09"/>
<g clip-path="url(#clip0_500_3214)">
<path d="M47.75 18H25.25C21.5285 18 18.5 21.0285 18.5 24.75V47.25C18.5 50.9715 21.5285 54 25.25 54H47.75C51.4715 54 54.5 50.9715 54.5 47.25V24.75C54.5 21.0285 51.4715 18 47.75 18ZM25.25 19.5H47.75C50.387 19.5 52.556 21.462 52.9235 24H20.0765C20.444 21.462 22.613 19.5 25.25 19.5ZM47.75 52.5H25.25C22.355 52.5 20 50.145 20 47.25V25.5H53V47.25C53 50.145 50.645 52.5 47.75 52.5ZM24.5 30.75C24.5 30.336 24.836 30 25.25 30H31.25C31.664 30 32 30.336 32 30.75C32 31.164 31.664 31.5 31.25 31.5H25.25C24.836 31.5 24.5 31.164 24.5 30.75ZM39.5 38.25C39.5 38.664 39.164 39 38.75 39H29.75C29.336 39 29 38.664 29 38.25C29 37.836 29.336 37.5 29.75 37.5H38.75C39.164 37.5 39.5 37.836 39.5 38.25ZM39.5 45.75C39.5 46.164 39.164 46.5 38.75 46.5H25.25C24.836 46.5 24.5 46.164 24.5 45.75C24.5 45.336 24.836 45 25.25 45H38.75C39.164 45 39.5 45.336 39.5 45.75ZM47 42.8565V33.75C47 31.683 45.3185 30 43.25 30H40.8935C40.5575 28.71 39.3935 27.75 38 27.75C36.3455 27.75 35 29.0955 35 30.75C35 32.4045 36.3455 33.75 38 33.75C39.3935 33.75 40.5575 32.79 40.8935 31.5H43.25C44.4905 31.5 45.5 32.5095 45.5 33.75V42.8565C44.21 43.1925 43.25 44.3565 43.25 45.75C43.25 47.4045 44.5955 48.75 46.25 48.75C47.9045 48.75 49.25 47.4045 49.25 45.75C49.25 44.3565 48.29 43.1925 47 42.8565ZM38 32.25C37.172 32.25 36.5 31.5765 36.5 30.75C36.5 29.9235 37.172 29.25 38 29.25C38.828 29.25 39.5 29.9235 39.5 30.75C39.5 31.5765 38.828 32.25 38 32.25ZM46.25 47.25C45.422 47.25 44.75 46.578 44.75 45.75C44.75 44.922 45.422 44.25 46.25 44.25C47.078 44.25 47.75 44.922 47.75 45.75C47.75 46.578 47.078 47.25 46.25 47.25Z" fill="#26AD00"/>
</g>
<defs>
<clipPath id="clip0_500_3214">
<rect width="36" height="36" fill="white" transform="translate(18.5 18)"/>
</clipPath>
</defs>
</svg>
