<svg width="73" height="72" viewBox="0 0 73 72" fill="none" xmlns="http://www.w3.org/2000/svg">
<circle cx="36.5" cy="36" r="36" fill="#26AD00" fill-opacity="0.09"/>
<g clip-path="url(#clip0_500_3226)">
<path d="M54.5 53.286C54.5 53.7 54.164 54.036 53.75 54.036L23.75 54C20.8565 54 18.5 51.645 18.5 48.75V18.678C18.5 18.2625 18.836 17.928 19.25 17.928C19.664 17.928 20 18.264 20 18.678V48.75C20 50.817 21.683 52.5 23.75 52.5L53.75 52.536C54.164 52.536 54.5 52.8735 54.5 53.286ZM54.5 26.6025V32.4675C54.5 33.3045 54.02 34.023 53.2475 34.3425C52.988 34.449 52.721 34.5015 52.4585 34.5015C51.9365 34.5015 51.4295 34.2945 51.0365 33.9015L48.329 31.194L42.11 37.413C41.108 38.415 39.359 38.415 38.357 37.413L37.3175 36.3735C36.8675 35.9235 36.1355 35.9235 35.6855 36.3735L25.781 46.278C25.634 46.425 25.442 46.497 25.25 46.497C25.058 46.497 24.866 46.4235 24.719 46.278C24.4265 45.9855 24.4265 45.51 24.719 45.2175L34.6235 35.313C35.657 34.2795 37.3415 34.2795 38.3765 35.313L39.416 36.3525C39.866 36.8025 40.598 36.8025 41.048 36.3525L47.267 30.1335L44.597 27.4635C44.0045 26.871 43.8365 26.025 44.1575 25.251C44.4785 24.477 45.197 23.9985 46.0325 23.9985H51.8975C53.333 23.9985 54.5 25.167 54.5 26.6025ZM53 26.6025C53 25.995 52.505 25.5 51.8975 25.5H46.0325C45.713 25.5 45.584 25.728 45.542 25.827C45.5015 25.9245 45.431 26.178 45.6575 26.4045L52.0955 32.8425C52.3205 33.0675 52.574 32.9985 52.673 32.958C52.772 32.9175 53 32.7885 53 32.4675V26.6025Z" fill="#26AD00"/>
</g>
<defs>
<clipPath id="clip0_500_3226">
<rect width="36" height="36" fill="white" transform="translate(18.5 18)"/>
</clipPath>
</defs>
</svg>
