<svg width="73" height="72" viewBox="0 0 73 72" fill="none" xmlns="http://www.w3.org/2000/svg">
<circle cx="36.5" cy="36" r="36" fill="#26AD00" fill-opacity="0.09"/>
<g clip-path="url(#clip0_500_3220)">
<path d="M43.5949 22.8855L46.1014 18.3855C46.3009 18.0225 46.7599 17.8935 47.1214 18.096C47.4829 18.297 47.6134 18.753 47.4109 19.116L44.9044 23.616C44.7679 23.862 44.5114 24.0015 44.2489 24.0015C44.1244 24.0015 43.9999 23.97 43.8844 23.907C43.5229 23.706 43.3924 23.2485 43.5949 22.8855ZM53.9374 25.9275C53.7694 25.548 53.3284 25.3785 52.9489 25.542L48.4489 27.5235C48.0694 27.69 47.8969 28.134 48.0634 28.512C48.1879 28.794 48.4624 28.9605 48.7504 28.9605C48.8509 28.9605 48.9544 28.9395 49.0519 28.8975L53.5519 26.916C53.9314 26.7495 54.1039 26.3055 53.9374 25.9275ZM27.0949 23.6145C27.2314 23.8605 27.4879 24 27.7504 24C27.8749 24 27.9994 23.9685 28.1149 23.9055C28.4764 23.7045 28.6069 23.2485 28.4044 22.8855L25.8994 18.3855C25.6984 18.0225 25.2409 17.895 24.8794 18.096C24.5179 18.297 24.3874 18.753 24.5899 19.116L27.0964 23.616L27.0949 23.6145ZM23.5519 27.5235L19.0519 25.542C18.6754 25.38 18.2314 25.5465 18.0634 25.9275C17.8969 26.3055 18.0694 26.7495 18.4489 26.916L22.9489 28.8975C23.0464 28.9395 23.1499 28.9605 23.2504 28.9605C23.5384 28.9605 23.8129 28.794 23.9374 28.512C24.1039 28.134 23.9314 27.69 23.5519 27.5235ZM48.0004 35.9985C48.0004 39.873 46.1119 43.5285 42.9484 45.777C42.3544 46.2 42.0004 46.881 42.0004 47.5995V49.5C42.0004 51.981 39.9814 54 37.5004 54H34.5004C31.9759 54 30.0004 51.9345 30.0004 49.296V47.598C30.0004 46.881 29.6419 46.197 29.0404 45.7695C25.3564 43.1415 23.4754 38.7105 24.1309 34.203C24.9004 28.9215 29.3164 24.663 34.6354 24.075C38.0959 23.691 41.4259 24.75 44.0029 27.0555C46.5424 29.331 48.0004 32.589 48.0004 35.9985ZM40.5004 49.4985V47.9985H31.5004V49.2945C31.5004 51.1215 32.7889 52.4985 34.5004 52.4985H37.5004C39.1549 52.4985 40.5004 51.153 40.5004 49.4985ZM46.5004 35.9985C46.5004 33.0165 45.2254 30.1635 43.0024 28.173C41.0509 26.427 38.6059 25.4985 36.0154 25.4985C35.6134 25.4985 35.2084 25.521 34.7989 25.566C30.1489 26.079 26.2864 29.802 25.6159 34.419C25.0414 38.367 26.6869 42.249 29.9104 44.547C30.5914 45.033 31.0669 45.7275 31.3099 46.4985H35.2504V38.922C33.5404 38.574 32.2504 37.059 32.2504 35.2485C32.2504 34.8345 32.5864 34.4985 33.0004 34.4985C33.4144 34.4985 33.7504 34.8345 33.7504 35.2485C33.7504 36.489 34.7599 37.4985 36.0004 37.4985C37.2409 37.4985 38.2504 36.489 38.2504 35.2485C38.2504 34.8345 38.5864 34.4985 39.0004 34.4985C39.4144 34.4985 39.7504 34.8345 39.7504 35.2485C39.7504 37.0605 38.4604 38.574 36.7504 38.922V46.4985H40.6894C40.9309 45.729 41.4019 45.036 42.0784 44.5545C44.8489 42.5865 46.5004 39.3885 46.5004 35.9985Z" fill="#26AD00"/>
</g>
<defs>
<clipPath id="clip0_500_3220">
<rect width="36" height="36" fill="white" transform="translate(18 18)"/>
</clipPath>
</defs>
</svg>
