<svg width="73" height="72" viewBox="0 0 73 72" fill="none" xmlns="http://www.w3.org/2000/svg">
<circle cx="36.5" cy="36" r="36" fill="#26AD00" fill-opacity="0.09"/>
<g clip-path="url(#clip0_500_3232)">
<path d="M54.281 52.719L44.6195 43.0575C47.03 40.395 48.5015 36.8655 48.5015 33C48.5 24.729 41.771 18 33.5 18C25.229 18 18.5 24.729 18.5 33C18.5 41.271 25.229 48 33.5 48C37.367 48 40.895 46.53 43.5575 44.118L53.219 53.7795C53.366 53.9265 53.558 53.9985 53.75 53.9985C53.942 53.9985 54.134 53.925 54.281 53.7795C54.5735 53.487 54.5735 53.0115 54.281 52.719ZM20 33C20 25.5555 26.057 19.5 33.5 19.5C40.943 19.5 47 25.5555 47 33C47 40.4445 40.943 46.5 33.5 46.5C26.057 46.5 20 40.4445 20 33ZM42.167 35.3535C42.6095 36.1125 42.6125 37.02 42.1745 37.782C41.7365 38.544 40.9505 39 40.0715 39H37.2485C36.8345 39 36.4985 38.664 36.4985 38.25C36.4985 37.836 36.8345 37.5 37.2485 37.5H40.0715C40.5545 37.5 40.793 37.1745 40.874 37.035C40.9535 36.8955 41.114 36.5265 40.871 36.1095L34.298 24.8415C34.0565 24.4275 33.659 24.381 33.5 24.381C33.341 24.381 32.942 24.426 32.702 24.8415L26.129 36.1095C25.8845 36.5265 26.045 36.8955 26.126 37.035C26.207 37.1745 26.444 37.5 26.9285 37.5H29.7515C30.1655 37.5 30.5015 37.836 30.5015 38.25C30.5015 38.664 30.1655 39 29.7515 39H26.9285C26.0495 39 25.2635 38.544 24.8255 37.782C24.3875 37.02 24.3905 36.1125 24.833 35.3535L31.406 24.0855C31.844 23.3325 32.627 22.881 33.5 22.881C34.373 22.881 35.156 23.3325 35.594 24.0855L42.167 35.3535ZM33.5 34.5C33.086 34.5 32.75 34.164 32.75 33.75V29.25C32.75 28.836 33.086 28.5 33.5 28.5C33.914 28.5 34.25 28.836 34.25 29.25V33.75C34.25 34.164 33.914 34.5 33.5 34.5ZM35 37.5C35 38.328 34.328 39 33.5 39C32.672 39 32 38.328 32 37.5C32 36.672 32.672 36 33.5 36C34.328 36 35 36.672 35 37.5Z" fill="#26AD00"/>
</g>
<defs>
<clipPath id="clip0_500_3232">
<rect width="36" height="36" fill="white" transform="translate(18.5 18)"/>
</clipPath>
</defs>
</svg>
