<svg width="32" height="32" viewBox="0 0 32 32" fill="none" xmlns="http://www.w3.org/2000/svg">
<g clip-path="url(#clip0_500_3062)">
<path d="M30.6667 22.376C31.52 20.4213 32 18.2667 32 16C32 13.7333 31.52 11.58 30.6667 9.624V9.33333H30.5267C27.992 3.83467 22.4413 0 16 0C9.55867 0 4.008 3.83467 1.47333 9.33333H1.33333V9.624C0.48 11.5787 0 13.7333 0 16C0 18.2667 0.48 20.42 1.33333 22.376V22.6667H1.47333C4.008 28.1653 9.55733 32 16 32C22.4427 32 27.992 28.1653 30.5267 22.6667H30.6667V22.376ZM29.648 21.3333H23.108C23.6467 19.6693 24 17.8813 24 16C24 14.1187 23.6467 12.3307 23.108 10.6667H29.648C30.2973 12.3227 30.6667 14.1173 30.6667 16C30.6667 17.8827 30.2973 19.6773 29.648 21.3333ZM10.308 21.3333C9.72267 19.6707 9.33333 17.876 9.33333 16C9.33333 14.124 9.72267 12.328 10.3067 10.6667H21.692C22.2773 12.3293 22.6667 14.124 22.6667 16C22.6667 17.876 22.2773 19.6707 21.692 21.3333H10.308ZM21.1693 22.6667C19.5307 26.4507 17.0147 29.32 15.9987 30.384C14.9827 29.32 12.4667 26.4507 10.828 22.6667H21.1693ZM10.828 9.33333C12.4667 5.54533 14.984 2.67733 16 1.61467C17.016 2.67867 19.532 5.548 21.1707 9.33333H10.828ZM29.048 9.33333H22.6293C21.2067 5.77467 19.0133 2.95867 17.6547 1.43333C22.6333 1.99467 26.856 5.05867 29.0493 9.33333H29.048ZM14.3427 1.43333C12.976 2.96667 10.7853 5.78533 9.36933 9.33333H2.952C5.14533 5.06 9.36533 1.99733 14.3427 1.43333ZM2.352 10.6667H8.89067C8.35333 12.3293 8 14.1187 8 16C8 17.8813 8.35333 19.6693 8.892 21.3333H2.352C1.70267 19.6773 1.33333 17.8827 1.33333 16C1.33333 14.1173 1.70267 12.3227 2.352 10.6667ZM2.952 22.6667H9.372C10.7947 26.2253 12.988 29.0413 14.3467 30.5667C9.368 30.0053 5.14533 26.9413 2.952 22.6667ZM17.6533 30.5667C19.012 29.0413 21.2053 26.224 22.628 22.6667H29.0467C26.8533 26.9413 22.632 30.0053 17.6533 30.5667Z" fill="#26AD00"/>
</g>
<defs>
<clipPath id="clip0_500_3062">
<rect width="32" height="32" fill="white"/>
</clipPath>
</defs>
</svg>
