<svg width="40" height="40" viewBox="0 0 40 40" fill="none" xmlns="http://www.w3.org/2000/svg">
<circle cx="20" cy="20" r="20" fill="#0E0F19"/>
<g clip-path="url(#clip0_500_3015)">
<mask id="mask0_500_3015" style="mask-type:luminance" maskUnits="userSpaceOnUse" x="5" y="15" width="30" height="11">
<path d="M33.1816 16.0038C33.1816 16.4612 33.5295 16.8516 34.0146 16.8516C34.4732 16.8516 34.8347 16.4612 34.8347 16.0038C34.8347 15.5446 34.4732 15.1855 34.0146 15.1855C33.5295 15.1855 33.1816 15.5446 33.1816 16.0038ZM16.849 16.0031V18.0844C16.3911 17.8761 15.698 17.6828 15.0304 17.6828C13.2411 17.6828 12.2133 18.7495 12.0594 20.4717C12.0182 20.9727 12.0182 21.958 12.0594 22.444C12.2133 24.1496 13.3504 25.3037 15.2251 25.3037C16.5712 25.3037 17.6954 24.7051 18.0572 24.44C18.2798 24.2888 18.3221 24.1353 18.3221 23.8852V16.0031C18.3221 15.5872 18.0011 15.2533 17.5847 15.2533C17.1836 15.2533 16.849 15.5872 16.849 16.0031ZM13.5298 22.2616C13.4899 21.8318 13.5029 21.0142 13.5298 20.6378C13.5873 19.6259 14.0867 19.0973 15.1414 19.0973C15.8648 19.0973 16.5583 19.3481 16.849 19.5289V23.3858C16.5712 23.5955 15.8505 23.8852 15.2527 23.8852C14.1831 23.8852 13.6149 23.3307 13.5298 22.2616ZM26.383 18.4452C26.176 18.5851 26.0899 18.7243 26.0899 19.0139V24.4679C26.0899 24.8848 26.4375 25.219 26.8276 25.219C27.2426 25.219 27.5636 24.8848 27.5636 24.4679V19.488C27.8803 19.2927 28.5342 19.0973 29.2131 19.0973C30.0754 19.0973 30.8263 19.5704 30.8263 20.681V24.4679C30.8263 24.8848 31.1719 25.219 31.5607 25.219C31.9923 25.219 32.2974 24.8848 32.2974 24.4679V20.6109C32.2974 18.7362 31.2689 17.6828 29.2566 17.6828C27.7992 17.6828 26.7851 18.1409 26.383 18.4452ZM20.1098 18.0974C19.7353 18.2651 19.6226 18.5425 19.6226 18.7794C19.6226 19.2093 20.0267 19.5289 20.6374 19.3339C21.0265 19.195 21.5821 19.0289 22.151 19.0289C23.2323 19.0289 23.6918 19.4315 23.6918 20.375V20.8321C23.0525 20.681 22.579 20.5983 21.9277 20.5983C19.9848 20.5983 19.1096 21.6949 19.1096 22.9015C19.1096 24.2619 20.0526 25.3037 21.9549 25.3037C23.3994 25.3037 24.4554 24.7878 24.8448 24.5253C25.0522 24.3855 25.1073 24.2347 25.1073 23.9838V20.375C25.1073 18.5007 24.0101 17.6828 22.2334 17.6828C21.3887 17.6828 20.5128 17.903 20.1098 18.0974ZM20.5537 22.8473C20.5537 22.1803 21.1638 21.8042 22.0108 21.8042C22.6368 21.8042 23.0807 21.8882 23.6918 22.0397V23.5822C23.5519 23.6915 23.0399 24.0124 22.0809 24.0124C21.0956 24.0124 20.5537 23.5955 20.5537 22.8473ZM6.1876 18.0974C5.81345 18.2651 5.70047 18.5425 5.70047 18.7794C5.70047 19.2093 6.10387 19.5289 6.71527 19.3339C7.10405 19.195 7.66063 19.0289 8.22818 19.0289C9.31209 19.0289 9.76965 19.4315 9.76965 20.375V20.8321C9.13033 20.681 8.65882 20.5983 8.00621 20.5983C6.12879 20.5983 5.24889 21.6225 5.19141 22.7789V23.0337C5.25089 24.328 6.19358 25.3037 8.03312 25.3037C9.4789 25.3037 10.5326 24.7878 10.923 24.5253C11.1307 24.3855 11.1855 24.2347 11.1855 23.9838V20.375C11.1855 18.5007 10.0883 17.6828 8.31191 17.6828C7.46491 17.6828 6.591 17.903 6.1876 18.0974ZM6.63287 22.8473C6.63287 22.1803 7.24261 21.8042 8.08961 21.8042C8.71398 21.8042 9.15957 21.8882 9.76965 22.0397V23.5822C9.63142 23.6915 9.11605 24.0124 8.1584 24.0124C7.1735 24.0124 6.63287 23.5955 6.63287 22.8473ZM33.2786 18.5581V24.4974C33.2786 24.914 33.6262 25.2486 34.0146 25.2486C34.4306 25.2486 34.7523 24.914 34.7523 24.4974V18.5581C34.7523 18.1422 34.4177 17.8083 34.0146 17.8083C33.5979 17.8083 33.2786 18.1422 33.2786 18.5581Z" fill="white"/>
</mask>
<g mask="url(#mask0_500_3015)">
<path d="M33.1816 16.0038C33.1816 16.4612 33.5295 16.8516 34.0146 16.8516C34.4732 16.8516 34.8347 16.4612 34.8347 16.0038C34.8347 15.5446 34.4732 15.1855 34.0146 15.1855C33.5295 15.1855 33.1816 15.5446 33.1816 16.0038ZM16.849 16.0031V18.0844C16.3911 17.8761 15.698 17.6828 15.0304 17.6828C13.2411 17.6828 12.2133 18.7495 12.0594 20.4717C12.0182 20.9727 12.0182 21.958 12.0594 22.444C12.2133 24.1496 13.3504 25.3037 15.2251 25.3037C16.5712 25.3037 17.6954 24.7051 18.0572 24.44C18.2798 24.2888 18.3221 24.1353 18.3221 23.8852V16.0031C18.3221 15.5872 18.0011 15.2533 17.5847 15.2533C17.1836 15.2533 16.849 15.5872 16.849 16.0031ZM13.5298 22.2616C13.4899 21.8318 13.5029 21.0142 13.5298 20.6378C13.5873 19.6259 14.0867 19.0973 15.1414 19.0973C15.8648 19.0973 16.5583 19.3481 16.849 19.5289V23.3858C16.5712 23.5955 15.8505 23.8852 15.2527 23.8852C14.1831 23.8852 13.6149 23.3307 13.5298 22.2616ZM26.383 18.4452C26.176 18.5851 26.0899 18.7243 26.0899 19.0139V24.4679C26.0899 24.8848 26.4375 25.219 26.8276 25.219C27.2426 25.219 27.5636 24.8848 27.5636 24.4679V19.488C27.8803 19.2927 28.5342 19.0973 29.2131 19.0973C30.0754 19.0973 30.8263 19.5704 30.8263 20.681V24.4679C30.8263 24.8848 31.1719 25.219 31.5607 25.219C31.9923 25.219 32.2974 24.8848 32.2974 24.4679V20.6109C32.2974 18.7362 31.2689 17.6828 29.2566 17.6828C27.7992 17.6828 26.7851 18.1409 26.383 18.4452ZM20.1098 18.0974C19.7353 18.2651 19.6226 18.5425 19.6226 18.7794C19.6226 19.2093 20.0267 19.5289 20.6374 19.3339C21.0265 19.195 21.5821 19.0289 22.151 19.0289C23.2323 19.0289 23.6918 19.4315 23.6918 20.375V20.8321C23.0525 20.681 22.579 20.5983 21.9277 20.5983C19.9848 20.5983 19.1096 21.6949 19.1096 22.9015C19.1096 24.2619 20.0526 25.3037 21.9549 25.3037C23.3994 25.3037 24.4554 24.7878 24.8448 24.5253C25.0522 24.3855 25.1073 24.2347 25.1073 23.9838V20.375C25.1073 18.5007 24.0101 17.6828 22.2334 17.6828C21.3887 17.6828 20.5128 17.903 20.1098 18.0974ZM20.5537 22.8473C20.5537 22.1803 21.1638 21.8042 22.0108 21.8042C22.6368 21.8042 23.0807 21.8882 23.6918 22.0397V23.5822C23.5519 23.6915 23.0399 24.0124 22.0809 24.0124C21.0956 24.0124 20.5537 23.5955 20.5537 22.8473ZM6.1876 18.0974C5.81345 18.2651 5.70047 18.5425 5.70047 18.7794C5.70047 19.2093 6.10387 19.5289 6.71527 19.3339C7.10405 19.195 7.66063 19.0289 8.22818 19.0289C9.31209 19.0289 9.76965 19.4315 9.76965 20.375V20.8321C9.13033 20.681 8.65882 20.5983 8.00621 20.5983C6.12879 20.5983 5.24889 21.6225 5.19141 22.7789V23.0337C5.25089 24.328 6.19358 25.3037 8.03312 25.3037C9.4789 25.3037 10.5326 24.7878 10.923 24.5253C11.1307 24.3855 11.1855 24.2347 11.1855 23.9838V20.375C11.1855 18.5007 10.0883 17.6828 8.31191 17.6828C7.46491 17.6828 6.591 17.903 6.1876 18.0974ZM6.63287 22.8473C6.63287 22.1803 7.24261 21.8042 8.08961 21.8042C8.71398 21.8042 9.15957 21.8882 9.76965 22.0397V23.5822C9.63142 23.6915 9.11605 24.0124 8.1584 24.0124C7.1735 24.0124 6.63287 23.5955 6.63287 22.8473ZM33.2786 18.5581V24.4974C33.2786 24.914 33.6262 25.2486 34.0146 25.2486C34.4306 25.2486 34.7523 24.914 34.7523 24.4974V18.5581C34.7523 18.1422 34.4177 17.8083 34.0146 17.8083C33.5979 17.8083 33.2786 18.1422 33.2786 18.5581Z" fill="url(#paint0_linear_500_3015)"/>
</g>
</g>
<defs>
<linearGradient id="paint0_linear_500_3015" x1="-8.70663" y1="22.7564" x2="46.5465" y2="17.9213" gradientUnits="userSpaceOnUse">
<stop stop-color="#00B16B"/>
<stop offset="0.350006" stop-color="#006DB6"/>
<stop offset="0.649994" stop-color="#8E278F"/>
<stop offset="0.899994" stop-color="#F04C23"/>
<stop offset="1" stop-color="#F04C23"/>
</linearGradient>
<clipPath id="clip0_500_3015">
<rect width="30" height="10.5" fill="white" transform="translate(5 15)"/>
</clipPath>
</defs>
</svg>
