<svg width="40" height="40" viewBox="0 0 40 40" fill="none" xmlns="http://www.w3.org/2000/svg">
<circle cx="20" cy="20" r="20" fill="#0E0F19"/>
<g clip-path="url(#clip0_500_3006)">
<path d="M27.1609 30.3044C26.3222 30.9565 25.2899 31.0218 24.4512 30.6304C24.4512 30.6304 24.1931 30.5652 23.9996 30.3044C23.806 30.0435 19.1609 24.6957 19.1609 24.6957C20.5802 24.9565 22.1286 24.2391 22.9673 23C23.806 21.7609 23.7415 20.0652 22.9673 18.8261C22.0641 17.5218 20.2577 17.0652 18.7738 17.2609C16.1931 17.6522 14.3222 20 13.7415 22.4783C13.1609 25.2826 13.548 27.9565 14.5157 30.5C14.7093 31.0217 15.0319 31.6087 15.3544 32.0652C12.6448 30.8261 10.2577 28.6087 8.96734 25.5435C7.54798 22.2826 7.6125 18.1739 9.2254 14.8478C10.5157 12.3044 12.8383 9.95653 15.677 8.91306C18.7738 7.54349 22.8383 7.80436 25.7415 9.50001C29.2899 11.3261 31.9996 15.8261 31.9996 19.8696C32.0641 24.0435 30.3222 27.8261 27.1609 30.3044Z" fill="#D2AB67"/>
<path d="M17.2254 31.8697C15.8706 30.3697 14.8383 28.4784 15.6125 26.5219C16.3222 25.0219 16.9673 23.4567 17.2899 21.6958C17.4189 23.5219 18.5157 25.1523 19.0318 26.9132C19.2254 27.761 19.2254 28.6088 18.9028 29.5219C18.5802 30.5001 17.9996 31.2828 17.2899 32.0001L17.2254 31.8697Z" fill="#D2AB67"/>
</g>
<defs>
<clipPath id="clip0_500_3006">
<rect width="24" height="24" fill="white" transform="translate(8 8)"/>
</clipPath>
</defs>
</svg>
