<svg width="40" height="40" viewBox="0 0 40 40" fill="none" xmlns="http://www.w3.org/2000/svg">
<circle cx="20" cy="20" r="20" fill="#0E0F19"/>
<g clip-path="url(#clip0_500_2999)">
<path d="M17.8849 31.4574C19.4346 30.9148 20.6912 30.1635 21.864 29.4122L22.199 29.2035C23.4556 28.4104 24.7121 27.5339 25.9687 26.4487C28.775 24.0696 30.4503 21.6904 31.4137 18.8522C31.7907 17.6835 32.3771 15.4296 31.665 13.3009C31.1624 11.7565 30.199 10.4626 28.8168 9.50261C28.6493 9.37739 26.932 8 23.6231 8C20.6074 8 17.2985 9.12696 13.8221 11.3809L13.6964 11.4643C13.5708 11.5061 13.487 11.5896 13.4032 11.673C13.3195 11.7148 13.2357 11.7983 13.1519 11.84C12.4399 12.2991 11.7697 12.8417 11.0996 13.3843C9.59171 14.7617 7.91632 17.0991 8.00009 19.0609C8.04197 19.8957 8.41894 20.6052 9.04721 21.1061C9.67548 21.5652 10.4294 21.7739 11.309 21.7739C13.11 21.7739 15.0786 20.8139 16.4189 20.0209C16.5027 19.9791 16.5865 19.8957 16.6702 19.8539C16.9216 19.687 17.131 19.5617 17.3823 19.3948L17.6336 19.2278C19.5603 17.9757 21.5289 16.6817 23.7488 15.9304C24.3352 15.7217 24.8378 15.6383 25.2985 15.6383C25.5079 15.6383 25.7593 15.6383 25.9687 15.7217C26.6388 15.8887 27.1414 16.2643 27.4346 16.8487C27.9373 17.8922 27.8116 19.4783 27.1414 20.9809C26.1781 22.9843 24.5446 24.9878 22.2409 26.9078C21.0682 27.8678 19.9791 28.6191 19.0577 29.12L18.8901 29.1617C18.4294 29.4122 17.9268 29.6626 17.4242 29.8713L17.3404 29.913C17.1729 29.9548 17.0472 30.0383 16.9216 30.08C14.7017 30.6643 16.042 28.7443 16.042 28.7443C16.5446 28.16 17.0472 27.7009 17.5498 27.2417C17.843 26.9496 18.1781 26.6991 18.4713 26.3652L18.5551 26.2817C18.932 25.9061 19.4765 25.3635 19.4346 24.6122C19.3928 23.6104 18.3456 22.9843 17.3823 22.9843H17.2985C16.3771 22.9843 15.4975 23.527 14.9111 23.9861C14.3247 24.4452 13.7383 25.113 13.3195 25.7391C12.7331 26.6574 11.4765 28.9948 12.6912 30.873C13.1938 31.6243 13.9896 32 15.1205 32C15.9163 32 16.8378 31.7913 17.8849 31.4574Z" fill="#E90000"/>
</g>
<defs>
<clipPath id="clip0_500_2999">
<rect width="24" height="24" fill="white" transform="translate(8 8)"/>
</clipPath>
</defs>
</svg>
