<svg width="46" height="47" viewBox="0 0 46 47" fill="none" xmlns="http://www.w3.org/2000/svg">
<g clip-path="url(#clip0_500_3582)">
<path d="M45.8617 14.5007C45.7498 12.0524 45.3609 10.3805 44.7924 8.91772C44.2151 7.38301 43.3096 5.99289 42.1395 4.84387C40.9909 3.6738 39.6004 2.76799 38.0657 2.19032C36.6026 1.62213 34.931 1.23363 32.4827 1.12238C30.0299 1.01007 29.2462 0.983398 23 0.983398C16.7538 0.983398 15.9701 1.01007 13.5173 1.12167C11.069 1.23363 9.39745 1.62248 7.93433 2.19102C6.39961 2.76834 5.00949 3.6738 3.86047 4.84387C2.6904 5.99254 1.78459 7.38266 1.20692 8.91737C0.638733 10.3805 0.250229 12.0524 0.138977 14.5003C0.0266724 16.9535 0 17.7368 0 23.983C0 30.2296 0.0266724 31.0133 0.138977 33.4661C0.25058 35.914 0.639435 37.586 1.20798 39.0491C1.78529 40.5834 2.69075 41.9739 3.86082 43.1226C5.00949 44.2926 6.39996 45.1981 7.93468 45.7754C9.39745 46.3443 11.0694 46.7328 13.5176 46.8448C15.9708 46.9567 16.7541 46.983 23.0004 46.983C29.2466 46.983 30.0303 46.9567 32.4831 46.8448C34.9313 46.7328 36.6029 46.3443 38.066 45.7754C41.1555 44.5808 43.5977 42.1385 44.7924 39.0491C45.3613 37.586 45.7498 35.914 45.8617 33.4661C45.9733 31.013 46 30.2296 46 23.9834C46 17.7368 45.9733 16.9535 45.8617 14.5007ZM41.7215 33.2777C41.6194 35.5202 41.2446 36.7381 40.9298 37.5484C40.1559 39.5544 38.5707 41.1397 36.5647 41.9135C35.7543 42.2283 34.5365 42.6032 32.2939 42.7053C29.8692 42.8162 29.1417 42.8394 23 42.8394C16.858 42.8394 16.1308 42.8162 13.7057 42.7053C11.4635 42.6032 10.2457 42.2283 9.435 41.9135C8.43619 41.5447 7.53249 40.9568 6.79057 40.1928C6.02655 39.4509 5.43871 38.5476 5.06985 37.5484C4.75505 36.7381 4.38023 35.5202 4.27811 33.2777C4.16756 30.8526 4.14404 30.1251 4.14404 23.9837C4.14404 17.8421 4.16756 17.1149 4.27811 14.6895C4.38058 12.4469 4.75505 11.2291 5.06985 10.4187C5.43871 9.41959 6.0269 8.51588 6.79057 7.77397C7.53249 7.00995 8.43619 6.4221 9.43535 6.0536C10.2457 5.73845 11.4635 5.36398 13.7061 5.26151C16.1312 5.15096 16.8587 5.12744 23 5.12744H22.9996C29.141 5.12744 29.8685 5.15096 32.2939 5.26186C34.5365 5.36398 35.754 5.7388 36.5647 6.0536C37.5635 6.42245 38.4672 7.0103 39.2091 7.77397C39.9731 8.51588 40.5609 9.41959 40.9294 10.4187C41.2446 11.2291 41.6194 12.4469 41.7215 14.6895C41.8321 17.1146 41.8556 17.8421 41.8556 23.9834C41.8556 30.1251 41.8324 30.8522 41.7215 33.2777Z" fill="url(#paint0_linear_500_3582)"/>
<path d="M22.9996 12.1724C16.4768 12.1724 11.189 17.4605 11.189 23.9833C11.189 30.5061 16.4768 35.7939 22.9996 35.7939C29.5227 35.7939 34.8105 30.5061 34.8105 23.9833C34.8105 17.4605 29.5227 12.1724 22.9996 12.1724ZM22.9996 31.6499C18.7657 31.6495 15.333 28.2172 15.3334 23.983C15.3334 19.7491 18.7657 16.3164 22.9999 16.3164C27.2341 16.3168 30.6665 19.7491 30.6665 23.983C30.6665 28.2172 27.2338 31.6499 22.9996 31.6499Z" fill="url(#paint1_linear_500_3582)"/>
<path d="M38.0372 11.706C38.0372 13.2302 36.8015 14.4659 35.2773 14.4659C33.7528 14.4659 32.5171 13.2302 32.5171 11.706C32.5171 10.1815 33.7528 8.9458 35.2773 8.9458C36.8015 8.9458 38.0372 10.1815 38.0372 11.706Z" fill="url(#paint2_linear_500_3582)"/>
</g>
<defs>
<linearGradient id="paint0_linear_500_3582" x1="3.86024" y1="43.1228" x2="42.1397" y2="4.84327" gradientUnits="userSpaceOnUse">
<stop stop-color="#FFD600"/>
<stop offset="0.5" stop-color="#FF0100"/>
<stop offset="1" stop-color="#D800B9"/>
</linearGradient>
<linearGradient id="paint1_linear_500_3582" x1="14.6483" y1="32.3346" x2="31.3512" y2="15.6317" gradientUnits="userSpaceOnUse">
<stop stop-color="#FF6400"/>
<stop offset="0.5" stop-color="#FF0100"/>
<stop offset="1" stop-color="#FD0056"/>
</linearGradient>
<linearGradient id="paint2_linear_500_3582" x1="33.3256" y1="13.6574" x2="37.2288" y2="9.75431" gradientUnits="userSpaceOnUse">
<stop stop-color="#F30072"/>
<stop offset="1" stop-color="#E50097"/>
</linearGradient>
<clipPath id="clip0_500_3582">
<rect width="46" height="46" fill="white" transform="translate(0 0.983398)"/>
</clipPath>
</defs>
</svg>
