<svg width="125" height="142" viewBox="0 0 125 142" fill="none" xmlns="http://www.w3.org/2000/svg">
<path d="M25.0415 37.0324L42.7873 81.7325C42.9583 82.1615 43.0429 82.6201 43.0364 83.0819C43.0299 83.5437 42.9323 83.9997 42.7493 84.4237C42.5663 84.8477 42.3014 85.2315 41.9698 85.553C41.6382 85.8745 41.2464 86.1274 40.8169 86.2972L34.9353 88.6322L37.7633 95.7555C37.8779 96.0443 37.8732 96.3669 37.75 96.6523C37.6268 96.9376 37.3953 97.1624 37.1065 97.277C36.8176 97.3917 36.495 97.387 36.2097 97.2638C35.9243 97.1406 35.6996 96.9091 35.5849 96.6203L32.757 89.497L27.3111 91.659C26.882 91.83 26.4235 91.9147 25.9617 91.9081C25.4999 91.9016 25.0439 91.804 24.6198 91.621C24.1958 91.438 23.8121 91.1731 23.4906 90.8415C23.1691 90.5099 22.9162 90.1182 22.7463 89.6887L5.00056 44.9886C4.82957 44.5595 4.74491 44.101 4.75143 43.6392C4.75795 43.1774 4.85552 42.7214 5.03855 42.2974C5.22159 41.8733 5.48648 41.4896 5.81807 41.1681C6.14966 40.8466 6.54141 40.5937 6.9709 40.4238L12.4168 38.2618L9.39001 30.6375C9.27533 30.3487 9.2801 30.0261 9.40327 29.7407C9.52644 29.4554 9.75792 29.2306 10.0468 29.116C10.3357 29.0013 10.6583 29.006 10.9436 29.1292C11.229 29.2524 11.4537 29.4839 11.5684 29.7727L14.5952 37.397L20.4768 35.0621C20.9058 34.8911 21.3644 34.8064 21.8262 34.8129C22.288 34.8194 22.744 34.917 23.168 35.1C23.592 35.2831 23.9758 35.548 24.2973 35.8796C24.6188 36.2111 24.8717 36.6029 25.0415 37.0324Z" fill="#26AD00" fill-opacity="0.5"/>
<path d="M90.4026 23.8187L103.53 56.8863C103.701 57.3153 103.786 57.7739 103.779 58.2357C103.773 58.6975 103.675 59.1535 103.492 59.5775C103.309 60.0015 103.044 60.3853 102.713 60.7068C102.381 61.0283 101.989 61.2812 101.56 61.451L95.6784 63.786L97.7366 68.9705C97.8513 69.2594 97.8465 69.582 97.7233 69.8673C97.6002 70.1527 97.3687 70.3774 97.0798 70.4921C96.7909 70.6068 96.4683 70.602 96.183 70.4788C95.8976 70.3557 95.6729 70.1242 95.5582 69.8353L93.5 64.6508L88.0541 66.8128C87.625 66.9838 87.1665 67.0684 86.7047 67.0619C86.2429 67.0554 85.7869 66.9578 85.3629 66.7748C84.9388 66.5918 84.5551 66.3269 84.2336 65.9953C83.9121 65.6637 83.6592 65.2719 83.4893 64.8424L70.3616 31.7748C70.1906 31.3458 70.106 30.8873 70.1125 30.4255C70.119 29.9636 70.2166 29.5077 70.3996 29.0836C70.5826 28.6596 70.8475 28.2758 71.1791 27.9543C71.5107 27.6328 71.9025 27.3799 72.332 27.2101L77.7779 25.0481L75.5726 19.4933C75.4579 19.2044 75.4627 18.8818 75.5859 18.5964C75.7091 18.3111 75.9405 18.0863 76.2294 17.9717C76.5183 17.857 76.8409 17.8618 77.1262 17.9849C77.4116 18.1081 77.6363 18.3396 77.751 18.6284L79.9562 24.1833L85.8378 21.8483C86.2669 21.6773 86.7254 21.5927 87.1872 21.5992C87.649 21.6057 88.105 21.7033 88.529 21.8863C88.9531 22.0693 89.3368 22.3342 89.6583 22.6658C89.9798 22.9974 90.2327 23.3892 90.4026 23.8187Z" fill="#26AD00" fill-opacity="0.5"/>
<path d="M59.2988 31.855L88.434 105.244C88.7711 106.111 88.7534 107.076 88.3847 107.93C88.016 108.785 87.3259 109.459 86.4637 109.809L80.1247 112.325L84.8551 124.241C84.9135 124.384 84.9427 124.537 84.9412 124.691C84.9397 124.846 84.9074 124.998 84.8462 125.14C84.7851 125.281 84.6963 125.41 84.585 125.517C84.4738 125.623 84.3423 125.707 84.1983 125.763C83.9094 125.876 83.5872 125.871 83.3021 125.748C83.017 125.625 82.7922 125.394 82.6768 125.106L77.9463 113.19L72.0865 115.517C71.2196 115.858 70.253 115.842 69.3977 115.473C68.5424 115.104 67.868 114.411 67.5217 113.546L38.3865 40.1571C38.2155 39.728 38.1309 39.2695 38.1374 38.8077C38.1439 38.3459 38.2415 37.8899 38.4245 37.4658C38.6076 37.0418 38.8724 36.658 39.204 36.3366C39.5356 36.0151 39.9274 35.7621 40.3569 35.5923L46.2167 33.266L41.1662 20.5443C41.0525 20.2554 41.0577 19.9332 41.1807 19.6481C41.3038 19.3629 41.5347 19.1381 41.823 19.0227C41.9659 18.9644 42.1189 18.9351 42.2733 18.9366C42.4276 18.9382 42.58 18.9704 42.7217 19.0316C42.8634 19.0928 42.9915 19.1816 43.0984 19.2928C43.2054 19.4041 43.2891 19.5355 43.3446 19.6795L48.395 32.4012L54.7341 29.8846C55.6009 29.5434 56.5676 29.5591 57.4228 29.9283C58.2781 30.2975 58.9526 30.9901 59.2988 31.855Z" fill="#26AD00" fill-opacity="0.5"/>
</svg>
