<svg width="205" height="268" viewBox="0 0 205 268" fill="none" xmlns="http://www.w3.org/2000/svg">
<path d="M192.998 128.952L193.001 128.949C200.096 116.025 203.642 101.836 203.642 86.3906C203.642 69.6903 199.972 54.8676 192.619 41.9368C185.26 28.9953 174.225 18.8542 159.536 11.51C144.84 4.16177 126.874 0.5 105.66 0.5H1H0.5V1V266.24V266.74H1H65.6097H66.1097V266.24V171.526H105.66C127.381 171.526 145.603 167.611 160.304 159.754C174.985 151.907 185.892 141.642 192.998 128.952ZM127.984 110.589C122.068 116.259 113.022 119.14 100.748 119.14H66.1097V53.6412H100.748C113.022 53.6412 122.068 56.5226 127.984 62.1924C133.907 67.8681 136.898 75.9095 136.898 86.3906C136.898 96.8718 133.907 104.913 127.984 110.589Z" stroke="white" stroke-opacity="0.12"/>
</svg>
