<svg width="195" height="195" viewBox="0 0 195 195" fill="none" xmlns="http://www.w3.org/2000/svg">
<path d="M60.0415 63.0325L77.7873 107.733C77.9583 108.162 78.0429 108.62 78.0364 109.082C78.0299 109.544 77.9323 110 77.7493 110.424C77.5663 110.848 77.3014 111.232 76.9698 111.553C76.6382 111.875 76.2464 112.127 75.8169 112.297L69.9353 114.632L72.7633 121.756C72.8779 122.044 72.8732 122.367 72.75 122.652C72.6268 122.938 72.3953 123.162 72.1065 123.277C71.8176 123.392 71.495 123.387 71.2097 123.264C70.9243 123.141 70.6996 122.909 70.5849 122.62L67.757 115.497L62.3111 117.659C61.882 117.83 61.4235 117.915 60.9617 117.908C60.4999 117.902 60.0439 117.804 59.6198 117.621C59.1958 117.438 58.8121 117.173 58.4906 116.842C58.1691 116.51 57.9162 116.118 57.7463 115.689L40.0006 70.9886C39.8296 70.5596 39.7449 70.1011 39.7514 69.6392C39.758 69.1774 39.8555 68.7215 40.0386 68.2974C40.2216 67.8734 40.4865 67.4896 40.8181 67.1681C41.1497 66.8466 41.5414 66.5937 41.9709 66.4239L47.4168 64.2619L44.39 56.6376C44.2753 56.3487 44.2801 56.0261 44.4033 55.7408C44.5264 55.4554 44.7579 55.2307 45.0468 55.116C45.3357 55.0013 45.6583 55.0061 45.9436 55.1293C46.229 55.2524 46.4537 55.4839 46.5684 55.7728L49.5952 63.3971L55.4768 61.0621C55.9058 60.8911 56.3644 60.8065 56.8262 60.813C57.288 60.8195 57.744 60.9171 58.168 61.1001C58.592 61.2831 58.9758 61.548 59.2973 61.8796C59.6188 62.2112 59.8717 62.603 60.0415 63.0325Z" fill="url(#paint0_linear_834_4777)" fill-opacity="0.09"/>
<path d="M125.403 49.8187L138.53 82.8863C138.701 83.3154 138.786 83.7739 138.779 84.2357C138.773 84.6975 138.675 85.1535 138.492 85.5775C138.309 86.0016 138.044 86.3853 137.713 86.7068C137.381 87.0283 136.989 87.2812 136.56 87.4511L130.678 89.786L132.737 94.9706C132.851 95.2594 132.846 95.582 132.723 95.8674C132.6 96.1527 132.369 96.3775 132.08 96.4921C131.791 96.6068 131.468 96.6021 131.183 96.4789C130.898 96.3557 130.673 96.1242 130.558 95.8354L128.5 90.6508L123.054 92.8129C122.625 92.9838 122.166 93.0685 121.705 93.062C121.243 93.0555 120.787 92.9579 120.363 92.7749C119.939 92.5918 119.555 92.3269 119.234 91.9953C118.912 91.6638 118.659 91.272 118.489 90.8425L105.362 57.7749C105.191 57.3459 105.106 56.8873 105.112 56.4255C105.119 55.9637 105.217 55.5077 105.4 55.0837C105.583 54.6597 105.848 54.2759 106.179 53.9544C106.511 53.6329 106.902 53.38 107.332 53.2102L112.778 51.0481L110.573 45.4933C110.458 45.2044 110.463 44.8818 110.586 44.5965C110.709 44.3111 110.941 44.0864 111.229 43.9717C111.518 43.857 111.841 43.8618 112.126 43.985C112.412 44.1082 112.636 44.3396 112.751 44.6285L114.956 50.1833L120.838 47.8484C121.267 47.6774 121.725 47.5927 122.187 47.5993C122.649 47.6058 123.105 47.7033 123.529 47.8864C123.953 48.0694 124.337 48.3343 124.658 48.6659C124.98 48.9975 125.233 49.3892 125.403 49.8187Z" fill="url(#paint1_linear_834_4777)" fill-opacity="0.09"/>
<path d="M94.2988 57.855L123.434 131.244C123.771 132.111 123.753 133.076 123.385 133.93C123.016 134.785 122.326 135.459 121.464 135.809L115.125 138.326L119.855 150.241C119.913 150.384 119.943 150.537 119.941 150.691C119.94 150.846 119.907 150.998 119.846 151.14C119.785 151.282 119.696 151.41 119.585 151.517C119.474 151.624 119.342 151.707 119.198 151.763C118.909 151.876 118.587 151.871 118.302 151.748C118.017 151.625 117.792 151.394 117.677 151.106L112.946 139.19L107.086 141.517C106.22 141.858 105.253 141.842 104.398 141.473C103.542 141.104 102.868 140.411 102.522 139.546L73.3865 66.1571C73.2155 65.7281 73.1309 65.2695 73.1374 64.8077C73.1439 64.3459 73.2415 63.8899 73.4245 63.4659C73.6076 63.0419 73.8724 62.6581 74.204 62.3366C74.5356 62.0151 74.9274 61.7622 75.3569 61.5924L81.2167 59.266L76.1662 46.5444C76.0525 46.2554 76.0577 45.9332 76.1807 45.6481C76.3038 45.363 76.5347 45.1382 76.823 45.0228C76.9659 44.9644 77.1189 44.9352 77.2733 44.9367C77.4276 44.9382 77.58 44.9705 77.7217 45.0317C77.8634 45.0928 77.9915 45.1816 78.0984 45.2929C78.2054 45.4041 78.2891 45.5356 78.3446 45.6796L83.395 58.4012L89.7341 55.8847C90.6009 55.5435 91.5676 55.5592 92.4228 55.9284C93.2781 56.2975 93.9526 56.9902 94.2988 57.855Z" fill="url(#paint2_linear_834_4777)" fill-opacity="0.09"/>
<defs>
<linearGradient id="paint0_linear_834_4777" x1="45.2646" y1="55.0295" x2="72.3243" y2="123.191" gradientUnits="userSpaceOnUse">
<stop stop-color="white"/>
<stop offset="1" stop-color="white" stop-opacity="0"/>
</linearGradient>
<linearGradient id="paint1_linear_834_4777" x1="111.447" y1="43.8852" x2="132.298" y2="96.4057" gradientUnits="userSpaceOnUse">
<stop stop-color="white"/>
<stop offset="1" stop-color="white" stop-opacity="0"/>
</linearGradient>
<linearGradient id="paint2_linear_834_4777" x1="77.0626" y1="44.9276" x2="119.438" y2="151.668" gradientUnits="userSpaceOnUse">
<stop stop-color="white"/>
<stop offset="1" stop-color="white" stop-opacity="0"/>
</linearGradient>
</defs>
</svg>
