<svg width="24" height="25" viewBox="0 0 24 25" fill="none" xmlns="http://www.w3.org/2000/svg">
<g clip-path="url(#clip0_834_2876)">
<path d="M0 0.5H24V24.5H0V0.5Z" fill="url(#paint0_linear_834_2876)"/>
<path d="M14.4801 18.3933C14.9334 18.6199 15.5468 18.5666 16.0001 18.2199C16.8715 17.5359 17.5678 16.6544 18.0315 15.6483C18.4951 14.6421 18.7129 13.5402 18.6668 12.4333C18.6246 11.2563 18.2845 10.1092 17.6782 9.09943C17.0719 8.0897 16.2192 7.25034 15.2001 6.65995C14.3609 6.19149 13.4287 5.91395 12.47 5.84712C11.5112 5.78028 10.5495 5.92579 9.65344 6.27328C8.08461 6.88351 6.80057 8.05817 6.05344 9.56661C5.12011 11.4066 5.12011 13.6999 5.89344 15.5133C6.58387 17.1191 7.85539 18.4049 9.45344 19.1133C9.25533 18.852 9.09383 18.5649 8.97344 18.2599C8.40731 16.8517 8.25917 15.3102 8.54677 13.8199C8.86677 12.4466 9.88011 11.0599 11.3201 10.8599C12.1468 10.7399 13.1601 11.0466 13.6668 11.7933C14.0934 12.4599 14.1068 13.4333 13.6668 14.1133C13.2134 14.8333 12.3334 15.2199 11.5334 15.0733H11.5601L14.2268 18.1933C14.3468 18.3266 14.4801 18.3933 14.4801 18.3933ZM9.58677 16.0999C9.13344 17.2066 9.72011 18.2599 10.4668 19.0866L10.5201 19.1533C10.8934 18.7533 11.2134 18.2866 11.4001 17.7533C11.5734 17.2733 11.5734 16.7799 11.4668 16.3133C11.3601 15.9533 11.2001 15.5933 11.0668 15.2466C10.7778 14.6692 10.5885 14.0471 10.5068 13.4066C10.3334 14.3933 9.97344 15.2466 9.57344 16.0999H9.58677Z" fill="#BFA161"/>
</g>
<defs>
<linearGradient id="paint0_linear_834_2876" x1="4.46667" y1="4.66" x2="29.2" y2="33.0733" gradientUnits="userSpaceOnUse">
<stop stop-color="#1A1E21"/>
<stop offset="1" stop-color="#06060A"/>
</linearGradient>
<clipPath id="clip0_834_2876">
<rect width="24" height="24" fill="white" transform="translate(0 0.5)"/>
</clipPath>
</defs>
</svg>
