<svg width="120" height="120" viewBox="0 0 120 120" fill="none" xmlns="http://www.w3.org/2000/svg">
<g clip-path="url(#clip0_834_5159)">
<path d="M31.0877 112.84C34.1791 109.667 35.8964 105.404 35.8677 100.974C35.839 96.5443 34.0666 92.304 30.9343 89.1714C27.802 86.0388 23.5619 84.266 19.132 84.2368C14.7022 84.2077 10.4391 85.9245 7.26582 89.0156C2.57832 93.7031 0.733791 100.969 0.147853 107.531C-0.185051 111.252 -0.163862 114.996 0.211134 118.713C0.311916 119.651 1.20723 119.855 1.36192 119.885H1.40645C1.78379 119.899 7.16739 120.005 8.82676 114.762C9.12279 113.782 9.56021 112.851 10.1252 111.998C11.2104 110.398 13.7111 111.361 13.4346 113.276C13.1654 115.272 13.5783 117.3 14.6064 119.032C14.7203 119.224 14.8889 119.377 15.0907 119.473C15.2924 119.568 15.518 119.6 15.7385 119.566C21.3658 118.718 27.1385 116.789 31.0877 112.84Z" fill="url(#paint0_linear_834_5159)" fill-opacity="0.05"/>
<path d="M85.6709 93.7219V79.2024C87.4115 77.7071 89.1139 76.1305 90.7779 74.4727L95.3904 69.8672C112.65 52.5985 121.076 30.4688 119.892 10.5891C119.543 4.74143 115.364 0.560178 109.514 0.210959C89.6459 -0.972635 67.4998 7.45315 50.2357 24.7196L45.6303 29.325C43.9709 30.9844 42.3943 32.6875 40.9006 34.4344H26.3811C23.299 34.5516 20.5732 36.3305 19.0311 38.9391L10.4951 56.0156C10.2704 56.6287 10.1132 57.2645 10.0264 57.9117C10.0397 59.0084 10.4814 60.0565 11.2569 60.832C12.0324 61.6075 13.0804 62.0491 14.1771 62.0625H24.9584C23.5521 66.7735 24.4896 71.4047 27.485 74.3953L45.7029 92.6156C48.6936 95.6086 53.3248 96.5414 58.0357 95.1422V105.923C58.0491 107.02 58.4907 108.068 59.2663 108.844C60.0418 109.619 61.0898 110.061 62.1865 110.074C62.8337 109.987 63.4695 109.83 64.0826 109.605L81.1545 101.07C83.7725 99.5321 85.5467 96.7969 85.6709 93.7219ZM75.6561 44.4469C73.2482 42.039 71.6085 38.9712 70.9443 35.6314C70.28 32.2916 70.621 28.8298 71.9241 25.6838C73.2273 22.5379 75.434 19.8489 78.2654 17.9571C81.0967 16.0653 84.4254 15.0555 87.8307 15.0555C91.2359 15.0555 94.5646 16.0653 97.396 17.9571C100.227 19.8489 102.434 22.5379 103.737 25.6838C105.04 28.8298 105.381 32.2916 104.717 35.6314C104.053 38.9712 102.413 42.039 100.005 44.4469C98.4065 46.0457 96.5085 47.314 94.4195 48.1793C92.3306 49.0446 90.0917 49.4899 87.8307 49.4899C85.5696 49.4899 83.3307 49.0446 81.2418 48.1793C79.1529 47.314 77.2548 46.0457 75.6561 44.4469Z" fill="url(#paint1_linear_834_5159)" fill-opacity="0.05"/>
</g>
<defs>
<linearGradient id="paint0_linear_834_5159" x1="17.8906" y1="84.2365" x2="17.8906" y2="119.888" gradientUnits="userSpaceOnUse">
<stop stop-color="white"/>
<stop offset="1" stop-color="white" stop-opacity="0"/>
</linearGradient>
<linearGradient id="paint1_linear_834_5159" x1="65.0139" y1="0.10144" x2="65.0139" y2="110.074" gradientUnits="userSpaceOnUse">
<stop stop-color="white"/>
<stop offset="1" stop-color="white" stop-opacity="0"/>
</linearGradient>
<clipPath id="clip0_834_5159">
<rect width="120" height="120" fill="white"/>
</clipPath>
</defs>
</svg>
