<svg width="111" height="139" viewBox="0 0 111 139" fill="none" xmlns="http://www.w3.org/2000/svg">
<path d="M101.354 49.9073C101.026 49.2634 100.482 48.8192 99.7265 48.5743L85.8624 44.0838C86.3955 39.301 85.9268 34.8476 84.4544 30.7277L103.345 36.8464C104.103 37.0919 104.802 37.0497 105.447 36.7223C106.088 36.3929 106.533 35.8494 106.778 35.0928L109.457 26.821C109.702 26.0639 109.661 25.3641 109.334 24.7206C109.003 24.0768 108.462 23.632 107.704 23.3865L40.2465 1.53704C39.4894 1.29181 38.7894 1.33459 38.1454 1.66226C37.5024 1.99181 37.0573 2.53387 36.8121 3.29097L33.3193 14.0744C33.0918 14.777 33.1516 15.4681 33.4987 16.1479C33.8458 16.8276 34.3707 17.2813 35.0733 17.5089L46.8299 21.3168C58.2344 25.0107 64.4888 30.41 65.5909 37.5163L32.1058 26.6705C31.3487 26.4252 30.6482 26.4666 30.0047 26.7957C29.3616 27.1255 28.9166 27.6673 28.6714 28.4244L25.9925 36.6951C25.7474 37.4517 25.7888 38.1522 26.1181 38.7951C26.4471 39.4398 26.9908 39.8836 27.7468 40.1285L62.3687 51.3425C59.7433 55.3908 55.8787 57.8711 50.7741 58.786C45.6691 59.7011 39.5507 59.0036 32.4154 56.6925L23.3344 53.7512C22.6318 53.5236 21.9406 53.5837 21.2609 53.9305C20.5808 54.2779 20.1273 54.8031 19.8999 55.5051L16.5644 65.8032C16.3365 66.5069 16.3867 67.18 16.7158 67.8234C23.522 82.2113 31.9836 102.002 42.0978 127.198C42.3746 128.005 42.945 128.548 43.8101 128.828L59.62 133.949C60.7562 134.317 61.6977 134.086 62.4446 133.25C63.3001 132.452 63.4918 131.499 63.0129 130.388C53.4993 105.925 45.7852 87.4207 39.8745 74.8758C49.4137 76.7713 57.8363 76.2138 65.1416 73.2059C72.4462 70.1972 77.981 65.0009 81.7462 57.6204L95.3674 62.0323C96.1234 62.2772 96.8242 62.2362 97.4674 61.9067C98.1117 61.5792 98.5568 61.0362 98.8018 60.2796L101.48 52.0097C101.726 51.2518 101.683 50.5518 101.354 49.9073Z" fill="url(#paint0_linear_515_1761)"/>
<defs>
<linearGradient id="paint0_linear_515_1761" x1="74.0572" y1="12.4883" x2="37.0809" y2="126.648" gradientUnits="userSpaceOnUse">
<stop stop-color="#26AD00" stop-opacity="0.5"/>
<stop offset="1" stop-color="#26AD00" stop-opacity="0.05"/>
</linearGradient>
</defs>
</svg>
