<svg width="152" height="152" viewBox="0 0 152 152" fill="none" xmlns="http://www.w3.org/2000/svg">
<g clip-path="url(#clip0_834_4862)">
<path d="M121.354 55.9073C121.026 55.2634 120.482 54.8192 119.726 54.5743L105.862 50.0838C106.396 45.301 105.927 40.8476 104.454 36.7277L123.345 42.8464C124.103 43.0919 124.802 43.0497 125.447 42.7223C126.088 42.3929 126.533 41.8494 126.778 41.0928L129.457 32.821C129.702 32.0639 129.661 31.3641 129.334 30.7206C129.003 30.0768 128.462 29.632 127.704 29.3865L60.2465 7.53704C59.4894 7.29181 58.7894 7.33459 58.1454 7.66226C57.5024 7.99181 57.0573 8.53387 56.8121 9.29097L53.3193 20.0744C53.0918 20.777 53.1516 21.4681 53.4987 22.1479C53.8458 22.8276 54.3707 23.2813 55.0733 23.5089L66.8299 27.3168C78.2344 31.0107 84.4888 36.41 85.5909 43.5163L52.1058 32.6705C51.3487 32.4252 50.6482 32.4666 50.0047 32.7957C49.3616 33.1255 48.9166 33.6673 48.6714 34.4244L45.9925 42.6951C45.7474 43.4517 45.7888 44.1522 46.1181 44.7951C46.4471 45.4398 46.9908 45.8836 47.7468 46.1285L82.3687 57.3425C79.7433 61.3908 75.8787 63.8711 70.7741 64.786C65.6691 65.7011 59.5507 65.0036 52.4154 62.6925L43.3344 59.7512C42.6318 59.5236 41.9406 59.5837 41.2609 59.9305C40.5808 60.2779 40.1273 60.8031 39.8999 61.5051L36.5644 71.8032C36.3365 72.5069 36.3867 73.18 36.7158 73.8234C43.522 88.2113 51.9836 108.002 62.0978 133.198C62.3746 134.005 62.945 134.548 63.8101 134.828L79.62 139.949C80.7562 140.317 81.6977 140.086 82.4446 139.25C83.3001 138.452 83.4918 137.499 83.0129 136.388C73.4993 111.925 65.7852 93.4207 59.8745 80.8758C69.4137 82.7713 77.8363 82.2138 85.1416 79.2059C92.4462 76.1972 97.981 71.0009 101.746 63.6204L115.367 68.0323C116.123 68.2772 116.824 68.2362 117.467 67.9067C118.112 67.5792 118.557 67.0362 118.802 66.2796L121.48 58.0097C121.726 57.2518 121.683 56.5518 121.354 55.9073Z" fill="url(#paint0_linear_834_4862)" fill-opacity="0.05"/>
</g>
<defs>
<linearGradient id="paint0_linear_834_4862" x1="94.0572" y1="18.4883" x2="57.0809" y2="132.648" gradientUnits="userSpaceOnUse">
<stop stop-color="white"/>
<stop offset="1" stop-color="white" stop-opacity="0"/>
</linearGradient>
<clipPath id="clip0_834_4862">
<rect width="120" height="120" fill="white" transform="translate(36.9766) rotate(17.9471)"/>
</clipPath>
</defs>
</svg>
