<svg width="53" height="52" viewBox="0 0 53 52" fill="none" xmlns="http://www.w3.org/2000/svg">
<g filter="url(#filter0_dii_500_15246)">
<path d="M2.3335 11C2.3335 5.47715 6.81065 1 12.3335 1H40.3335C45.8563 1 50.3335 5.47715 50.3335 11V39C50.3335 44.5229 45.8563 49 40.3335 49H12.3335C6.81065 49 2.3335 44.5228 2.3335 39V11Z" fill="#26AD00"/>
<path d="M3.3335 11C3.3335 6.02944 7.36293 2 12.3335 2H40.3335C45.3041 2 49.3335 6.02944 49.3335 11V39C49.3335 43.9706 45.3041 48 40.3335 48H12.3335C7.36293 48 3.3335 43.9706 3.3335 39V11Z" stroke="url(#paint0_linear_500_15246)" stroke-width="2"/>
<path d="M20.4279 24.2288C20.3657 23.8282 20.3335 23.4179 20.3335 23C20.3335 18.5817 23.9387 15 28.3861 15C32.8334 15 36.4387 18.5817 36.4387 23C36.4387 23.9981 36.2547 24.9535 35.9187 25.8345C35.8488 26.0175 35.8139 26.109 35.7981 26.1804C35.7824 26.2512 35.7763 26.301 35.7746 26.3735C35.7729 26.4466 35.7828 26.5272 35.8027 26.6883L36.2052 29.9585C36.2488 30.3125 36.2706 30.4895 36.2117 30.6182C36.1601 30.731 36.0685 30.8205 35.9546 30.8695C35.8246 30.9254 35.6481 30.8995 35.2952 30.8478L32.1099 30.3809C31.9436 30.3565 31.8605 30.3443 31.7847 30.3448C31.7098 30.3452 31.658 30.3507 31.5846 30.3661C31.5105 30.3817 31.4158 30.4172 31.2265 30.4881C30.3432 30.819 29.3859 31 28.3861 31C27.9679 31 27.5572 30.9683 27.1562 30.9073M21.9651 35C24.93 35 27.3335 32.5376 27.3335 29.5C27.3335 26.4624 24.93 24 21.9651 24C19.0002 24 16.5967 26.4624 16.5967 29.5C16.5967 30.1106 16.6938 30.6979 16.873 31.2467C16.9488 31.4787 16.9867 31.5947 16.9992 31.6739C17.0121 31.7567 17.0144 31.8031 17.0096 31.8867C17.0049 31.9668 16.9849 32.0573 16.9448 32.2383L16.3335 35L19.3283 34.591C19.4918 34.5687 19.5735 34.5575 19.6449 34.558C19.72 34.5585 19.7599 34.5626 19.8336 34.5773C19.9036 34.5912 20.0077 34.6279 20.2158 34.7014C20.7641 34.8949 21.3526 35 21.9651 35Z" stroke="white" stroke-width="2" stroke-linecap="round" stroke-linejoin="round"/>
</g>
<defs>
<filter id="filter0_dii_500_15246" x="0.333496" y="0" width="52" height="52" filterUnits="userSpaceOnUse" color-interpolation-filters="sRGB">
<feFlood flood-opacity="0" result="BackgroundImageFix"/>
<feColorMatrix in="SourceAlpha" type="matrix" values="0 0 0 0 0 0 0 0 0 0 0 0 0 0 0 0 0 0 127 0" result="hardAlpha"/>
<feOffset dy="1"/>
<feGaussianBlur stdDeviation="1"/>
<feComposite in2="hardAlpha" operator="out"/>
<feColorMatrix type="matrix" values="0 0 0 0 0.0627451 0 0 0 0 0.0941176 0 0 0 0 0.156863 0 0 0 0.05 0"/>
<feBlend mode="normal" in2="BackgroundImageFix" result="effect1_dropShadow_500_15246"/>
<feBlend mode="normal" in="SourceGraphic" in2="effect1_dropShadow_500_15246" result="shape"/>
<feColorMatrix in="SourceAlpha" type="matrix" values="0 0 0 0 0 0 0 0 0 0 0 0 0 0 0 0 0 0 127 0" result="hardAlpha"/>
<feOffset dy="-2"/>
<feComposite in2="hardAlpha" operator="arithmetic" k2="-1" k3="1"/>
<feColorMatrix type="matrix" values="0 0 0 0 0.0627451 0 0 0 0 0.0941176 0 0 0 0 0.156863 0 0 0 0.05 0"/>
<feBlend mode="normal" in2="shape" result="effect2_innerShadow_500_15246"/>
<feColorMatrix in="SourceAlpha" type="matrix" values="0 0 0 0 0 0 0 0 0 0 0 0 0 0 0 0 0 0 127 0" result="hardAlpha"/>
<feMorphology radius="1" operator="erode" in="SourceAlpha" result="effect3_innerShadow_500_15246"/>
<feOffset/>
<feComposite in2="hardAlpha" operator="arithmetic" k2="-1" k3="1"/>
<feColorMatrix type="matrix" values="0 0 0 0 0.0627451 0 0 0 0 0.0941176 0 0 0 0 0.156863 0 0 0 0.18 0"/>
<feBlend mode="normal" in2="effect2_innerShadow_500_15246" result="effect3_innerShadow_500_15246"/>
</filter>
<linearGradient id="paint0_linear_500_15246" x1="26.3335" y1="1" x2="26.3335" y2="49" gradientUnits="userSpaceOnUse">
<stop stop-color="white" stop-opacity="0.12"/>
<stop offset="1" stop-color="white" stop-opacity="0"/>
</linearGradient>
</defs>
</svg>
